<svg height="512" viewBox="0 0 24 24" width="512" xmlns="http://www.w3.org/2000/svg">
    <path fill="#555" d="m22.5 20h-17c-.167 0-.323-.084-.416-.223l-5-7.5c-.112-.168-.112-.387 0-.555l5-7.5c.093-.138.249-.222.416-.222h17c.827 0 1.5.673 1.5 1.5v13c0 .827-.673 1.5-1.5 1.5zm-16.732-1h16.732c.276 0 .5-.225.5-.5v-13c0-.275-.224-.5-.5-.5h-16.732l-4.667 7z"/>
    <path fill="#555" d="m20.536 16.035c-.128 0-.256-.049-.354-.146l-7.071-7.07c-.195-.195-.195-.512 0-.707s.512-.195.707 0l7.071 7.07c.195.195.195.512 0 .707-.097.097-.225.146-.353.146z"/>
    <path fill="#555" d="m13.464 16.035c-.128 0-.256-.049-.354-.146-.195-.195-.195-.512 0-.707l7.071-7.07c.195-.195.512-.195.707 0s.195.512 0 .707l-7.071 7.07c-.097.097-.225.146-.353.146z"/>
</svg>