 <svg version="1.0" xmlns="http://www.w3.org/2000/svg" width="700.000000pt" height="679.000000pt" viewBox="0 0 700.000000 679.000000" preserveAspectRatio="xMidYMid meet">
<metadata>
Created by potrace 1.12, written by Peter Selinger 2001-2015
</metadata>
<g transform="translate(0.000000,679.000000) scale(0.100000,-0.100000)" fill="#000000" stroke="none">
<path d="M1232 6775 c-7 -8 -21 -15 -30 -15 -26 0 -84 -65 -122 -135 -18 -33
-38 -67 -45 -75 -7 -8 -32 -48 -56 -88 -24 -40 -51 -84 -59 -97 -8 -12 -42
-66 -75 -120 -33 -53 -68 -109 -77 -123 -10 -15 -21 -34 -25 -42 -4 -8 -25
-41 -47 -75 -23 -33 -45 -67 -51 -77 -31 -52 -82 -133 -95 -153 -19 -29 -131
-208 -148 -238 -7 -12 -41 -67 -77 -122 -35 -55 -90 -142 -122 -194 -32 -51
-65 -104 -73 -117 -46 -70 -100 -164 -100 -174 0 -6 -7 -13 -15 -16 -11 -4
-15 -21 -15 -55 0 -27 4 -49 8 -49 5 0 16 -15 25 -34 19 -40 82 -94 135 -114
20 -9 82 -18 137 -21 l100 -6 3 -2265 c2 -2477 -2 -2318 58 -2340 13 -5 24
-14 24 -20 0 -7 962 -10 3010 -10 2048 0 3010 3 3010 10 0 6 11 15 25 20 14 5
31 22 38 37 9 22 13 530 17 2298 l5 2270 100 6 c152 9 231 49 271 137 8 17 19
32 24 32 6 0 10 23 10 50 0 28 -4 50 -9 50 -4 0 -20 23 -34 50 -15 28 -42 75
-62 105 -66 102 -102 160 -131 208 -16 27 -36 59 -44 72 -8 12 -35 55 -60 94
-25 40 -52 83 -60 96 -8 13 -42 67 -75 121 -33 53 -67 107 -75 119 -8 13 -30
47 -48 76 -18 30 -55 88 -82 129 -28 41 -55 84 -60 95 -6 11 -18 32 -28 47 -9
14 -44 70 -77 123 -33 54 -67 108 -75 120 -8 13 -34 54 -57 92 -23 37 -62 99
-87 138 -25 38 -46 74 -46 80 0 18 -73 82 -102 89 -16 3 -28 11 -28 16 0 7
-788 10 -2257 10 -1968 -1 -2260 -3 -2271 -15z m4464 -213 c6 -4 41 -56 78
-117 62 -102 108 -175 218 -348 24 -37 49 -78 56 -90 7 -12 21 -34 30 -49 9
-15 44 -70 77 -124 33 -53 67 -107 75 -119 8 -13 30 -47 48 -76 50 -82 55 -90
85 -132 15 -22 27 -44 27 -48 0 -4 19 -36 43 -71 24 -35 68 -103 98 -151 30
-49 61 -99 69 -112 8 -13 35 -56 59 -96 24 -40 55 -88 67 -107 46 -67 117 -62
-916 -62 -918 0 -940 0 -950 19 -5 11 -10 40 -10 65 0 24 -5 57 -11 73 -7 15
-15 48 -19 73 -7 43 -12 59 -48 155 -18 50 -83 188 -92 195 -3 3 -17 23 -30
45 -44 74 -137 189 -201 250 -61 58 -193 165 -203 165 -3 0 -39 20 -79 45 -41
25 -81 45 -90 45 -8 0 -20 7 -27 15 -7 8 -22 15 -34 15 -12 0 -27 5 -32 10
-23 23 -220 69 -349 81 -110 10 -345 2 -385 -13 -14 -5 -45 -14 -70 -18 -86
-17 -214 -60 -232 -78 -7 -7 -22 -12 -34 -12 -12 0 -27 -7 -34 -15 -7 -8 -16
-15 -21 -15 -4 0 -28 -13 -52 -30 -25 -16 -48 -30 -52 -30 -13 0 -131 -94
-199 -159 -138 -133 -266 -326 -328 -496 -34 -92 -41 -112 -48 -150 -4 -22
-12 -53 -19 -68 -6 -16 -11 -51 -11 -78 0 -28 -5 -59 -10 -70 -10 -19 -32 -19
-950 -19 -1033 0 -962 -5 -916 62 12 19 43 67 67 107 24 40 52 84 61 99 10 15
21 34 25 42 3 8 9 17 13 20 3 3 19 27 35 54 17 27 37 59 45 71 8 12 29 46 45
74 17 28 33 51 38 51 4 0 7 6 7 13 0 8 12 32 28 54 29 42 34 50 84 132 18 29
40 63 48 76 15 22 119 190 143 230 7 11 24 36 40 56 15 20 27 41 27 46 0 6 13
28 28 49 16 21 31 46 35 54 4 8 32 53 62 100 30 47 86 138 125 203 l71 117
2192 0 c1206 0 2197 -4 2203 -8z m-2021 -673 c22 -6 64 -14 94 -19 29 -5 58
-13 64 -19 6 -6 19 -11 29 -11 16 0 74 -22 108 -41 8 -4 40 -20 70 -35 71 -34
220 -147 291 -221 48 -49 97 -114 157 -208 11 -18 41 -79 78 -162 8 -17 14
-37 14 -45 0 -8 5 -19 10 -24 6 -6 15 -33 20 -60 5 -27 14 -71 20 -97 14 -59
8 -398 -8 -442 -6 -16 -21 -64 -33 -105 -13 -41 -29 -86 -36 -100 -7 -14 -13
-28 -13 -32 0 -16 -97 -168 -146 -228 -161 -199 -335 -313 -605 -399 -108 -34
-316 -45 -464 -24 -79 11 -234 58 -291 88 -16 8 -32 15 -36 15 -15 0 -144 84
-207 135 -73 58 -161 148 -208 210 -41 55 -119 187 -128 216 -4 13 -11 29 -15
34 -4 6 -17 44 -29 85 -12 41 -27 89 -33 105 -6 17 -13 115 -16 219 -4 198 1
240 50 390 30 92 119 271 148 296 3 3 14 19 24 35 50 78 253 257 348 306 102
53 185 89 206 89 9 0 26 7 36 15 11 8 36 15 55 15 20 0 54 7 76 15 48 17 309
20 370 4z m-1531 -1265 c3 -9 6 -37 6 -64 0 -26 7 -64 15 -83 8 -20 15 -51 15
-70 0 -18 7 -42 15 -53 8 -10 15 -30 15 -42 0 -13 6 -36 14 -50 8 -15 31 -63
52 -107 20 -44 50 -99 65 -123 16 -24 29 -45 29 -48 0 -3 6 -11 13 -19 6 -7
21 -25 32 -41 37 -52 87 -109 134 -153 49 -47 205 -171 214 -171 3 0 25 -13
49 -28 58 -39 195 -102 220 -102 8 0 19 -5 25 -11 6 -6 29 -15 50 -20 21 -4
56 -12 78 -18 77 -19 251 -41 322 -41 39 0 107 7 150 15 43 8 94 15 113 15 19
1 46 7 60 15 14 8 36 14 50 15 14 0 38 7 54 15 15 8 33 15 38 15 6 0 24 6 41
14 18 8 55 24 82 37 57 25 188 109 266 171 75 59 152 140 220 233 33 44 63 85
68 91 8 10 77 144 120 232 12 23 21 53 21 65 0 12 7 31 15 41 8 11 15 35 15
53 0 19 7 50 15 70 8 19 15 59 15 87 0 28 4 57 8 64 7 10 165 12 758 10 l749
-3 3 -2190 c2 -2106 2 -2191 -16 -2205 -16 -13 -134 -14 -973 -10 l-954 5 -5
925 c-4 757 -8 931 -19 960 -53 134 -92 190 -175 251 -143 106 -162 109 -726
109 -564 0 -583 -3 -726 -109 -78 -57 -123 -119 -172 -236 -15 -36 -17 -131
-22 -970 l-5 -930 -964 -3 c-765 -2 -966 0 -973 10 -9 16 -11 4382 -1 4391 3
4 343 7 754 7 672 0 747 -2 753 -16z m1820 -2369 c82 -19 132 -49 178 -107 70
-88 68 -51 68 -1023 0 -781 -2 -875 -16 -889 -14 -14 -90 -16 -694 -16 -604 0
-680 2 -694 16 -14 14 -16 109 -16 894 0 868 0 879 21 933 11 30 35 71 51 92
53 63 98 84 233 108 11 2 196 5 411 6 324 1 401 -1 458 -14z"></path>
<path d="M3340 5433 c-8 -3 -22 -16 -32 -27 -15 -18 -17 -46 -18 -223 0 -128
-4 -204 -10 -208 -6 -4 -91 -6 -189 -5 -197 1 -253 -10 -265 -53 -3 -12 -6
-90 -6 -173 0 -206 -16 -194 246 -194 142 0 203 -3 212 -12 9 -9 12 -70 12
-214 l0 -202 31 -26 c30 -25 34 -26 179 -26 145 0 149 1 179 26 l31 26 0 202
c0 144 3 205 12 214 9 9 70 12 214 12 l203 0 20 26 c19 24 21 40 21 173 0 80
-3 156 -6 168 -12 43 -69 54 -265 52 -97 -1 -182 2 -188 5 -7 5 -11 73 -11
209 -1 268 12 251 -199 254 -86 1 -163 -1 -171 -4z"></path>
<path d="M1051 3953 l-31 -38 0 -520 0 -520 31 -38 30 -37 468 0 467 0 35 36
34 35 3 487 c2 268 0 506 -3 529 -4 26 -17 53 -35 73 l-28 30 -470 0 -471 0
-30 -37z m807 -185 c17 -17 17 -729 0 -746 -9 -9 -89 -12 -299 -12 -158 0
-294 3 -303 6 -14 5 -16 48 -16 379 0 289 3 374 13 378 6 3 143 6 303 6 213 1
293 -2 302 -11z"></path>
<path d="M4951 3960 c-20 -20 -32 -44 -36 -73 -3 -23 -5 -261 -3 -529 l3 -487
34 -35 35 -36 467 0 468 0 30 37 31 38 0 520 0 520 -31 38 -30 37 -469 0 -468
0 -31 -30z m797 -189 c20 -12 20 -740 0 -752 -22 -14 -592 -11 -606 3 -9 9
-12 106 -12 373 0 267 3 364 12 373 14 14 584 17 606 3z"></path>
<path d="M1097 2217 c-24 -8 -44 -23 -57 -45 -19 -31 -20 -52 -20 -544 0 -495
1 -512 20 -543 11 -18 35 -38 52 -44 45 -16 881 -14 927 2 22 8 40 24 52 47
18 32 19 67 19 534 0 487 0 500 -21 541 -19 37 -27 43 -71 54 -69 16 -848 14
-901 -2z m771 -586 c2 -285 -1 -366 -10 -373 -17 -10 -589 -10 -606 0 -10 7
-13 87 -13 366 0 196 3 361 6 367 4 6 124 8 313 7 l307 -3 3 -364z"></path>
<path d="M4992 2218 c-39 -8 -46 -15 -63 -53 -19 -42 -20 -68 -17 -552 3 -475
4 -510 22 -535 10 -16 34 -32 55 -38 50 -14 880 -13 918 1 15 5 38 22 50 37
l22 27 1 517 c0 474 -1 519 -17 547 -34 59 -49 61 -511 60 -229 -1 -437 -6
-460 -11z m763 -228 c3 -5 6 -169 6 -365 1 -293 -1 -359 -12 -366 -18 -11
-589 -12 -607 -1 -9 7 -12 88 -10 373 l3 364 290 5 c293 5 321 4 330 -10z"></path>
<path d="M3002 1267 c-29 -30 -30 -89 -2 -117 23 -23 86 -27 114 -7 28 21 32
87 6 120 -28 36 -86 38 -118 4z"></path>
</g>
</svg>