<svg xmlns="http://www.w3.org/2000/svg" viewBox="0 0 60.2 151.86">
            <path fill="#555" d="M45.84,139.1a17.83,17.83,0,0,1-1.31,6.69,17.38,17.38,0,0,1-4.2,6.07l-6.65-4.72a17.67,17.67,0,0,0,1.92-2.48,14.16,14.16,0,0,0,1.16-2.3,10.58,10.58,0,0,0,.57-2.07,11.33,11.33,0,0,0,.16-1.84v-.89a8.44,8.44,0,0,0-.09-1c0-.34-.1-.67-.17-1a5.31,5.31,0,0,0-.26-.86,10.26,10.26,0,0,0-1.15-2.14c-1.6.67-3.27,1.38-5,2.15L25.6,137l-5.2,2.33c-1.72.77-3.38,1.47-5,2.14l-3.18-7.62,5.63-2.32,6.56-2.69c2.56-1,5.4-2.24,8.6-3.6.76-.31,1.43-.6,2-.86a5.18,5.18,0,0,0,1.43-.93,3.27,3.27,0,0,0,.85-1.28,5.63,5.63,0,0,0,.27-1.91,4.31,4.31,0,0,1,2.58-3.76,4,4,0,0,1,3.23,0,4.13,4.13,0,0,1,1.32.9,4,4,0,0,1,.87,1.32,4.1,4.1,0,0,1,.32,1.59,16.35,16.35,0,0,1-.21,2.8,10.89,10.89,0,0,1-.59,2.17,7.65,7.65,0,0,1-.91,1.69,11.66,11.66,0,0,1-1.22,1.4c.31.47.61,1,.9,1.48s.6,1.19.85,1.8a16.46,16.46,0,0,1,.87,3.38A27.2,27.2,0,0,1,45.84,139.1Z"/>
            <path fill="#555" d="M41.72,124.65a4.06,4.06,0,0,1-1.62-.31,3.82,3.82,0,0,1-1.32-.88,4,4,0,0,1-.83-1.31,4.25,4.25,0,0,1-.32-1.62v-2a28.51,28.51,0,0,0-.15-3.62,11.87,11.87,0,0,0-.71-3,5.49,5.49,0,0,0-1.43-2.15,3.82,3.82,0,0,0-2.47-.85h-1A5.56,5.56,0,0,0,31,109l-1.41.38-2.47.69L25,102.45a21.18,21.18,0,0,1,3.32-.91,40.91,40.91,0,0,1,4.55-.68,14.86,14.86,0,0,0,1.62-.18A6.56,6.56,0,0,0,36,100.3a3.15,3.15,0,0,0,1.16-.82,2,2,0,0,0,.45-1.36,4.29,4.29,0,0,1,.32-1.62,4.13,4.13,0,0,1,7.93,1.6,10.84,10.84,0,0,1-.77,4.29,10.38,10.38,0,0,1-2,3.06,11.82,11.82,0,0,1,1.31,2.7,22.81,22.81,0,0,1,.84,3.25,32.53,32.53,0,0,1,.47,3.55q.15,1.83.15,3.6v2a4.25,4.25,0,0,1-.32,1.62,4,4,0,0,1-2.19,2.19A4.06,4.06,0,0,1,41.72,124.65Zm13.48-25,5,5-5,4.95,4.9,4.91-5,5.06-5-5,4.95-5-4.9-4.9Z"/>
            <path fill="#555"
                  d="M41.72,102.11a3.43,3.43,0,0,1-1.54-.34,3.88,3.88,0,0,1-1.29-.91A4.38,4.38,0,0,1,38,99.47a5.26,5.26,0,0,1-.39-1.71,7.4,7.4,0,0,0-.45-2.59,5.65,5.65,0,0,0-1.73-2.31,14,14,0,0,0-3.68-2,42,42,0,0,0-6.21-1.8l1-6.94c-.21,0-.09,0,.34.09s1.05.24,1.84.39,1.68.29,2.66.42a19,19,0,0,0,2.82.18,8.27,8.27,0,0,0,2.32-.31,1.52,1.52,0,0,0,1.15-1,1.81,1.81,0,0,0-.33-1.57,5.67,5.67,0,0,0-1.54-1.43,13.83,13.83,0,0,0-2.34-1.25q-1.35-.57-2.76-1c-.93-.31-1.86-.58-2.76-.8s-1.71-.4-2.4-.53l1-6.88a17.1,17.1,0,0,1,1.74.18c.74.09,1.49.16,2.3.21a19.68,19.68,0,0,0,2.42.07,8.86,8.86,0,0,0,2.24-.27,3.93,3.93,0,0,0,1.65-.81,1.88,1.88,0,0,0,.64-1.51A2.13,2.13,0,0,0,37,64.73a4.55,4.55,0,0,0-1.5-1.06A11.32,11.32,0,0,0,33.34,63c-.79-.17-1.59-.3-2.39-.39s-1.62-.13-2.39-.13a14.89,14.89,0,0,0-2,.08l-1-7,7.36-.86A5.43,5.43,0,0,0,35,54a5.65,5.65,0,0,0,1.48-1.23,5.33,5.33,0,0,0,.88-1.49,4.16,4.16,0,0,0,.3-1.48v-.32a4.61,4.61,0,0,1,.32-1.76,4.2,4.2,0,0,1,.87-1.37,3.82,3.82,0,0,1,1.32-.88,4.21,4.21,0,0,1,3.23,0,3.7,3.7,0,0,1,1.31.9,4.43,4.43,0,0,1,.87,1.46,5.67,5.67,0,0,1,.33,2A12.84,12.84,0,0,1,45,54.53a9.13,9.13,0,0,1-3,3.89l.37.31a2.81,2.81,0,0,0,.31.29h0A10.68,10.68,0,0,1,45,62.27a9,9,0,0,1,.88,4,9.52,9.52,0,0,1-3.78,7.59,13.56,13.56,0,0,1,2.8,3.55A9.11,9.11,0,0,1,46,81.86,8.8,8.8,0,0,1,45,86a9,9,0,0,1-2.71,3.16A7.75,7.75,0,0,1,45,92.62a13.79,13.79,0,0,1,.84,5.13,4.6,4.6,0,0,1-.33,1.8,4.37,4.37,0,0,1-.9,1.31,3.93,3.93,0,0,1-1.31.9A3.89,3.89,0,0,1,41.72,102.11ZM14.87,61.76l5,5-5,5,4.9,4.91-5,5.06-5-5,5-5L9.84,66.86ZM7.31,76.37,2.66,71.72l4.67-4.67L12,71.7Z"/>
            <path fill="#555"
                  d="M41.72,53.1a4.07,4.07,0,0,1-2.93-1.23,4.7,4.7,0,0,1-.87-1.33A3.94,3.94,0,0,1,37.59,49V40.11a5.74,5.74,0,0,0-.31-1.74,9.65,9.65,0,0,0-.82-1.86A7.19,7.19,0,0,0,35.31,35,2.38,2.38,0,0,0,34,34.21a7,7,0,0,0-2.82.47,16.16,16.16,0,0,0-3.09,1.53A33.48,33.48,0,0,0,25,38.46c-1.05.85-2.05,1.74-3,2.66S20.11,43,19.29,43.89s-1.52,1.77-2.11,2.55L10,45.74l-10-24,7.17-3,8.09,19.8c1.11-1.2,2.2-2.29,3.25-3.26s2.1-1.87,3.14-2.67,2.1-1.55,3.16-2.22S27,29.1,28.07,28.52l.47-.26h0l2.18-1.19c.72-.39,1.45-.81,2.18-1.26a15.41,15.41,0,0,0,1.84-1.37,11,11,0,0,0,1.5-1.63,8,8,0,0,0,1-1.9,6.3,6.3,0,0,0,.4-2.15V17.69A4.07,4.07,0,0,1,38,16.08a4.33,4.33,0,0,1,.87-1.32,3.88,3.88,0,0,1,1.31-.88,4.39,4.39,0,0,1,3.23,0,4,4,0,0,1,2.19,2.2,4.24,4.24,0,0,1,.32,1.61v.21a19.74,19.74,0,0,1-1,6.6,12.36,12.36,0,0,1-1.54,2.92A17.39,17.39,0,0,1,41.19,30q.36.29.75.66c.26.24.52.48.76.73a10.85,10.85,0,0,1,1.47,2.08,14.14,14.14,0,0,1,1,2.25A14.46,14.46,0,0,1,45.72,38c.11.8.18,1.6.22,2.4v8.51a4.13,4.13,0,0,1-2.51,3.82A3.89,3.89,0,0,1,41.72,53.1Z"/>
            <path fill="#555" d="M41.72,22.05a4.1,4.1,0,0,1-2.94-1.2,4,4,0,0,1-.87-1.3,4.25,4.25,0,0,1-.32-1.62V14.07a19.48,19.48,0,0,0-.07-2,12.43,12.43,0,0,0-.32-2,6.17,6.17,0,0,0-.65-1.65,2.47,2.47,0,0,0-1.12-1A3.75,3.75,0,0,0,34,7.21a8,8,0,0,0-1.88.37,23.42,23.42,0,0,0-2.78,1c-1,.44-2.08.86-3.19,1.36S24,10.94,23,11.48L19.31,4c1.09-.49,2.26-1,3.49-1.45s2.49-.91,3.76-1.29S29.07.6,30.35.35A20.94,20.94,0,0,1,34,0a12.08,12.08,0,0,1,4.82.94,11.15,11.15,0,0,1,4.06,3,12.09,12.09,0,0,1,2.36,4.57,14.65,14.65,0,0,1,.54,3c.06,1,.09,1.85.09,2.68V18a4.25,4.25,0,0,1-.32,1.62,3.81,3.81,0,0,1-.87,1.3,4.18,4.18,0,0,1-1.32.88A4,4,0,0,1,41.72,22.05Zm6.49-11.84L54,4.42l5.79,5.79L54,16Z"/>
</svg>