<svg version="1.1" xmlns="http://www.w3.org/2000/svg" x="0px" y="0px"
     viewBox="0 0 512 512">
    <path fill=" #85ddaa" d="M468.6,398.1C497,355.7,512,306.5,512,256c0-68.4-26.6-132.7-75-181C388.7,26.6,324.4,0,256,0S123.3,26.6,75,75
	C26.6,123.3,0,187.6,0,256s26.6,132.7,75,181c48.4,48.4,112.6,75,181,75c46.8,0,92.6-12.8,132.5-36.9"/>
    <path fill=" #85ddaa" d="M305.9,506.8c50.1-9.9,95.4-34.1,131.2-69.8c48.4-48.4,75-112.6,75-181c0-68.4-26.6-132.7-75-181S324.4,0,256,0
	C187.6,0,123.3,26.6,75,75S0,187.6,0,256c0,68.4,26.6,132.7,75,181c33.1,33.1,74.5,56.5,119.8,67.6"/>
</svg>
