<?xml version="1.0" encoding="UTF-8" standalone="no" ?>
<!-- Created with Inkscape (http://www.inkscape.org/) -->
<svg xmlns:dc="http://purl.org/dc/elements/1.1/"
     xmlns:cc="http://creativecommons.org/ns#"
     xmlns:rdf="http://www.w3.org/1999/02/22-rdf-syntax-ns#"
     xmlns="http://www.w3.org/2000/svg"
     xmlns:sodipodi="http://sodipodi.sourceforge.net/DTD/sodipodi-0.dtd"
     xmlns:inkscape="http://www.inkscape.org/namespaces/inkscape"
     width="135.20209mm"
     height="135.20473mm"
     viewBox="0 0 135.20209 135.20473"
     version="1.1"
     id="svg8"
     sodipodi:docname="drawing.svg"
     inkscape:version="0.92.4 (5da689c313, 2019-01-14)">
        <defs id="defs2">
            <style id="style4549">
                .cls-1 {
                fill: #fefefe;
                }

                .cls-2 {
                fill: #f06578;
                }
            </style>
        </defs>
        <sodipodi:namedview id="base"
                            pagecolor="#ffffff"
                            bordercolor="#666666"
                            borderopacity="1.0"
                            inkscape:pageopacity="0.0"
                            inkscape:pageshadow="2"
                            inkscape:zoom="0.35"
                            inkscape:cx="-233.07143"
                            inkscape:cy="95.504996"
                            inkscape:document-units="mm"
                            inkscape:current-layer="layer1"
                            showgrid="false"
                            fit-margin-top="0"
                            fit-margin-left="0"
                            fit-margin-right="0"
                            fit-margin-bottom="0"
                            inkscape:window-width="1600"
                            inkscape:window-height="833"
                            inkscape:window-x="-9"
                            inkscape:window-y="-9"
                            inkscape:window-maximized="1" />
        <metadata id="metadata5">
            <rdf:RDF>
                <cc:Work rdf:about="">
                    <dc:format>image/svg+xml</dc:format>
                    <dc:type rdf:resource="http://purl.org/dc/dcmitype/StillImage" />
                    <dc:title></dc:title>
                </cc:Work>
            </rdf:RDF>
        </metadata>
        <g inkscape:label="Layer 1"
           inkscape:groupmode="layer"
           id="layer1"
           transform="translate(-41.256102,-38.897636)">
            <path stroke-dasharray="0,430" style="fill:none;stroke-width:1;stroke:#f06578"
                  inkscape:connector-curvature="0"
                  class="cls-2"
                  d="m 41.256102,100.42384 c 0.264583,-1.587496 0.566208,-3.174996 0.79375,-4.762496 a 62.706249,62.706249 0 0 1 4.106333,-14.771687 65.336208,65.336208 0 0 1 8.41375,-14.864292 68.331291,68.331291 0 0 1 12.551833,-12.73175 72.995895,72.995895 0 0 1 11.795125,-7.408333 c 4.590521,-2.323041 9.464146,-3.889375 14.459479,-5.135562 6.791858,-1.690688 13.710708,-1.963208 20.605748,-1.524 9.78958,0.624416 19.02883,3.495146 27.63044,8.28675 a 70.434728,70.434728 0 0 1 11.99621,8.538104 c 7.40833,6.453187 12.91166,14.266333 16.97037,23.151041 2.52942,5.540375 4.32594,11.353271 5.02709,17.375187 a 92.006207,92.006207 0 0 1 0.52916,15.266458 c -0.37571,7.22842 -2.17487,14.21342 -5.01121,20.90208 a 68.370978,68.370978 0 0 1 -9.68904,16.28246 68.386853,68.386853 0 0 1 -38.05502,23.63788 c -2.667,0.6006 -5.42925,0.78052 -8.14652,1.16681 a 2.0822708,2.0822708 0 0 0 -0.55827,0.26458 h -11.8745 a 3.175,3.175 0 0 0 -0.69056,-0.26458 c -2.235731,-0.30163 -4.497919,-0.45508 -6.70719,-0.89958 A 66.301937,66.301937 0 0 1 74.921685,165.16474 C 68.629893,161.48703 62.99956,157.01822 58.168268,151.51224 A 68.97952,68.97952 0 0 1 46.351977,132.69772 61.737874,61.737874 0 0 1 42.052498,117.60589 c -0.232834,-1.5875 -0.529167,-3.175 -0.79375,-4.7625 z m 67.392018,66.675 c 33.48302,-0.0265 60.35411,-27.06687 60.56842,-60.08158 0.21696,-33.747603 -27.1145,-60.708644 -60.13979,-60.859457 -33.710565,-0.156104 -60.698065,27.077458 -60.819773,60.184767 -0.124354,33.65236 27.140958,60.70336 60.391143,60.76421 z"
                  id="path4557">
                <animate attributeName="stroke-dasharray"
                         from="0,430"
                         to="430,430"
                         dur="10s"
                         values="10,430;30,430;50,430;80,430;100,430;150,430;250,430;350,430;410,430;430,430;"
                         repeatCount="indefinite" />
            </path>
            <path stroke-dasharray="0,410" style="fill:none;stroke-width:1;stroke:#f06578"
                  inkscape:connector-curvature="0"
                  class="cls-2"
                  d="m 129.49464,106.40078 c -1.78064,3.33904 -3.98991,6.06425 -6.84477,8.26294 -13.35881,10.28435 -33.480373,2.62996 -36.562769,-13.92238 -2.365375,-12.699996 5.339292,-24.505704 18.023419,-27.140954 11.96975,-2.484437 23.0796,4.714875 26.53241,15.507229 1.32292,4.108979 2.72786,8.178271 5.38957,11.660185 a 12.964583,12.964583 0 0 0 1.7436,1.86796 c 2.11667,1.85208 4.65931,1.66688 6.56696,-0.39952 q 2.05846,-2.23044 4.1275,-4.447646 c 0.23283,-0.248708 0.52917,-0.447146 1.00806,-0.862542 v 2.881313 c 0,4.452935 0.0185,8.905875 -0.0212,13.358815 0,0.52916 -0.16668,1.20121 -0.508,1.56633 -9.03816,9.64406 -18.0631,19.31458 -27.2071,28.83958 a 87.161686,87.161686 0 0 1 -8.49312,7.67292 c -3.19617,2.55588 -5.89227,2.72521 -9.06992,0.15875 A 119.24771,119.24771 0 0 1 93.233497,141.26757 c -6.757458,-7.0485 -13.308541,-14.2875 -19.949583,-21.43125 -1.561042,-1.6801 -3.148542,-3.33639 -4.691063,-5.02708 a 1.9764375,1.9764375 0 0 1 -0.574145,-1.13771 c -0.0344,-5.47952 -0.02381,-10.96169 0.264583,-16.655519 L 108.791,140.40768 c 0.69056,-0.77788 1.29381,-1.48432 1.92352,-2.16165 6.63575,-7.14375 13.22916,-14.32719 19.94164,-21.43125 1.50548,-1.5875 1.82827,-3.37873 1.4949,-5.32077 a 9.3265624,9.3265624 0 0 0 -2.65642,-5.09323 z m -19.37543,1.42346 c 0.42068,-0.13494 0.71437,-0.26458 1.01864,-0.32015 a 11.538479,11.538479 0 0 0 8.68363,-14.287496 c -1.37319,-5.320771 -7.06173,-9.215437 -12.3878,-8.429625 -6.5061,0.957792 -10.268475,5.966354 -10.279058,11.609917 -0.01323,5.251974 3.899958,9.953624 8.995838,11.049004 1.02658,0.2196 1.28058,0.65087 1.23825,1.6166 -0.0714,1.6854 -0.0185,3.37608 -0.0185,5.02708 h 2.75696 z"
                  id="path4563">
                <animate attributeName="stroke-dasharray"
                         from="0,410"
                         to="410,410"
                         dur="10s"
                         values="10,410;30,410;50,410;80,410;100,410;150,410;250,410;350,410;410,410;410,410;410,410"
                         repeatCount="indefinite" />
            </path>
            <path stroke-dasharray="0,30" style="fill:none;stroke-width:1;stroke:#f06578"
                  inkscape:connector-curvature="0"
                  class="cls-2"
                  d="m 124.63954,68.880219 c 0,2.481792 -1.85209,4.273021 -4.36298,4.262438 -2.5109,-0.01058 -4.49792,-2.005542 -4.42648,-4.421188 0.0688,-2.278062 2.18546,-4.344458 4.46088,-4.360333 2.43416,-0.01588 4.34974,1.984375 4.32858,4.519083 z"
                  id="path4565">
                <animate attributeName="stroke-dasharray"
                         from="0,30"
                         to="30,30"
                         dur="10s"
                         values="5,30;10,30;15,30;20,30;25,30;30,30;30,30;30,30"
                         repeatCount="indefinite" />
            </path>
            <path stroke-dasharray="0,30" style="fill:none;stroke-width:1;stroke:#f06578"
                  inkscape:connector-curvature="0"
                  class="cls-2"
                  d="m 101.43558,68.829949 a 4.1989374,4.1989374 0 0 1 -4.336521,4.312708 4.2730208,4.2730208 0 0 1 -4.389437,-4.302125 c -0.04233,-2.38125 2.082271,-4.519083 4.455583,-4.479396 a 4.3814999,4.3814999 0 0 1 4.270375,4.468813 z"
                  id="path4567">
                <animate attributeName="stroke-dasharray"
                         from="0,30"
                         to="30,30"
                         dur="10s"
                         values="5,30;10,30;15,30;20,30;25,30;30,30;30,30;30,30"
                         repeatCount="indefinite" />
            </path>
            <path stroke-dasharray="0,30" style="fill:none;stroke-width:1;stroke:#f06578"
                  inkscape:connector-curvature="0"
                  class="cls-2"
                  d="m 104.43596,64.440511 a 4.3047708,4.3047708 0 1 1 8.60954,0 c 0,2.577042 -1.82034,4.402667 -4.37886,4.384146 -2.45004,-0.01588 -4.23598,-1.865313 -4.23068,-4.384146 z"
                  id="path4569">
                <animate attributeName="stroke-dasharray"
                         from="0,30"
                         to="30,30"
                         dur="10s"
                         values="5,30;10,30;15,30;20,30;25,30;30,30;30,30;30,30"
                         repeatCount="indefinite" />
            </path>
            <path stroke-dasharray="0,50" style="fill:none;stroke-width:1;stroke:#f06578"
                  inkscape:connector-curvature="0"
                  class="cls-2"
                  d="m 116.28664,96.756721 c 0,4.249209 -3.33639,7.691439 -7.52739,7.646459 a 7.5750207,7.5750207 0 0 1 -7.60413,-7.720549 c 0.17198,-4.249206 3.36815,-7.582958 7.60677,-7.575018 a 7.5406249,7.5406249 0 0 1 7.52475,7.649108 z"
                  id="path4573">
                <animate attributeName="stroke-dasharray"
                         from="0,50"
                         to="50,50"
                         dur="10s"
                         values="5,50;10,50;20,50;30,50;40,50;50,50;50,50;50,50"
                         repeatCount="indefinite" />
            </path>



        </g>
    </svg>