<svg height="511pt" viewBox="0 0 511 511.99974" width="511pt" xmlns="http://www.w3.org/2000/svg"><path d="m178.492188 277.015625c-11.039063 0-20-8.957031-20-19.996094 0-11.039062 8.960937-20 20-20 11.050781 0 20 8.960938 20 20 0 11.039063-8.949219 19.996094-20 19.996094zm97.996093-19.996094c0-11.039062-8.949219-20-19.996093-20-11.042969 0-20 8.960938-20 20 0 11.039063 8.957031 19.996094 20 19.996094 11.046874 0 19.996093-8.957031 19.996093-19.996094zm-255.988281 19.996094c11.039062 0 20-8.957031 20-19.996094 0-11.039062-8.960938-20-20-20-11.050781 0-20 8.960938-20 20 0 11.039063 8.949219 19.996094 20 19.996094zm98.996094-19.996094c0-11.039062-8.960938-20-20-20-11.050782 0-20 8.960938-20 20 0 11.039063 8.949218 19.996094 20 19.996094 11.039062 0 20-8.957031 20-19.996094zm314.988281 0c0-11.039062-8.949219-20-20-20-11.039063 0-20 8.960938-20 20 0 11.039063 8.960937 19.996094 20 19.996094 11.050781 0 20-8.957031 20-19.996094zm-78.996094 0c0-11.039062-8.960937-20-20-20-11.050781 0-20 8.960938-20 20 0 11.039063 8.949219 19.996094 20 19.996094 11.039063 0 20-8.957031 20-19.996094zm136.753907-60h.242187c10.933594 0 19.863281-8.800781 19.992187-19.765625.394532-33.527344-20.429687-63.992187-51.820312-75.8125l-255.691406-96.269531c-19.996094-7.527344-41.730469-6.816406-61.195313 1.996094-19.464843 8.816406-34.328125 24.6875-41.859375 44.683593l-44.429687 118.007813c-3.890625 10.335937 1.332031 21.875 11.667969 25.765625 10.339843 3.890625 21.875-1.335938 25.765624-11.671875l44.429688-118.007813c3.765625-9.996093 11.199219-17.933593 20.929688-22.339843 9.734374-4.40625 20.601562-4.761719 30.597656-1l255.691406 96.269531c15.699219 5.914062 26.117188 21.144531 25.917969 37.910156-.128907 11.042969 8.71875 20.101563 19.761719 20.234375zm-49.035157 121.046875c-10.339843-3.886718-21.875 1.332032-25.765625 11.671875l-43.808594 116.355469c-7.773437 20.640625-30.886718 31.109375-51.527343 23.339844l-255.691407-96.269532c-15.417968-5.804687-25.589843-20.195312-25.914062-36.664062-.214844-11.046875-9.339844-19.84375-20.386719-19.605469-11.042969.214844-19.820312 9.34375-19.601562 20.386719.644531 32.933594 20.980469 61.710938 51.808593 73.316406l255.691407 96.269532c9.253906 3.484374 18.75 5.132812 28.101562 5.132812 32.359375 0 62.894531-19.785156 74.953125-51.8125l43.808594-116.359375c3.890625-10.335937-1.332031-21.871094-11.667969-25.761719zm49.273438-81.046875c-11.039063 0-20 8.960938-20 20 0 11.039063 8.960937 19.996094 20 19.996094 11.050781 0 20-8.957031 20-19.996094 0-11.039062-8.949219-20-20-20zm0 0"/></svg>