<svg height="512pt" viewBox="0 -12 512 512" width="512pt" xmlns="http://www.w3.org/2000/svg"><path d="m512 152v66c0 11.046875-8.953125 20-20 20s-20-8.953125-20-20v-66c0-22.054688-17.945312-40-40-40h-30.359375c-25.695313 0-48.523437-16.34375-56.800781-40.664062l-6.054688-17.78125c-2.757812-8.105469-10.367187-13.554688-18.929687-13.554688h-127.769531c-8.402344 0-15.960938 5.308594-18.8125 13.207031l-6.925782 19.171875c-8.558594 23.699219-31.234375 39.621094-56.433594 39.621094h-29.914062c-22.054688 0-40 17.945312-40 40v230c0 22.054688 17.945312 40 40 40h145c11.046875 0 20 8.953125 20 20s-8.953125 20-20 20h-145c-44.113281 0-80-35.886719-80-80v-230c0-44.113281 35.886719-80 80-80h29.914062c8.402344 0 15.960938-5.308594 18.8125-13.207031l6.925782-19.171875c8.558594-23.699219 31.234375-39.621094 56.433594-39.621094h127.769531c25.695312 0 48.523437 16.34375 56.800781 40.667969l6.050781 17.777343c2.761719 8.105469 10.367188 13.554688 18.933594 13.554688h30.359375c44.113281 0 80 35.886719 80 80zm-255 20c27.773438 0 53.859375 13.621094 69.777344 36.441406 6.316406 9.0625 18.785156 11.28125 27.84375 4.960938 9.0625-6.316406 11.28125-18.785156 4.960937-27.84375-23.390625-33.539063-61.738281-53.558594-102.582031-53.558594-68.925781 0-125 56.074219-125 125 0 48.574219 28.5 93.132812 72.609375 113.519531 2.714844 1.253907 5.570313 1.851563 8.378906 1.851563 7.554688 0 14.789063-4.304688 18.167969-11.613282 4.632812-10.027343.261719-21.914062-9.765625-26.546874-30.003906-13.867188-49.390625-44.175782-49.390625-77.210938 0-46.867188 38.132812-85 85-85zm255 194c0 66.71875-54.28125 121-121 121s-121-54.28125-121-121 54.28125-121 121-121 121 54.28125 121 121zm-40 0c0-44.664062-36.335938-81-81-81s-81 36.335938-81 81 36.335938 81 81 81 81-36.335938 81-81zm-52-20h-9v-21c0-11.046875-8.953125-20-20-20s-20 8.953125-20 20v41c0 11.046875 8.953125 20 20 20h29c11.046875 0 20-8.953125 20-20s-8.953125-20-20-20zm0 0"/></svg>