<svg height="512pt" viewBox="0 -26 512 512" width="512pt" xmlns="http://www.w3.org/2000/svg"><path d="m492 154c11.046875 0 20-8.953125 20-20v-54c0-44.113281-35.886719-80-80-80h-352c-44.113281 0-80 35.886719-80 80v220c0 44.113281 35.886719 80 80 80h156v39.878906h-70c-11.046875 0-20 8.953125-20 20s8.953125 20 20 20h180c11.046875 0 20-8.953125 20-20s-8.953125-20-20-20h-70v-39.878906h156c44.113281 0 80-35.886719 80-80.007812l-.019531-42.984376c0-4.722656-1.671875-9.289062-4.714844-12.894531l-113.984375-135.015625c-3.800781-4.5-9.390625-7.097656-15.28125-7.097656-.019531 0-.035156 0-.050781 0-5.910157.015625-11.511719 2.644531-15.296875 7.179688l-112.5 134.664062-54.46875-66.515625c-3.75-4.582031-9.34375-7.265625-15.269532-7.328125-5.953124-.0625-11.566406 2.507812-15.414062 7.011719l-120.585938 141.242187c-2.820312-5.476562-4.414062-11.683594-4.414062-18.253906v-220c0-22.054688 17.945312-40 40-40h352c22.054688 0 40 17.945312 40 40v54c0 11.046875 8.953125 20 20 20zm-312.109375 67.175781 54.636719 66.722657c3.777344 4.613281 9.414062 7.296874 15.375 7.328124h.097656c5.925781 0 11.550781-2.628906 15.351562-7.179687l112.730469-134.949219 93.902344 111.234375.015625 35.667969c0 22.054688-17.945312 40-40 40h-352c-.511719 0-1.023438-.011719-1.53125-.027344zm-58.890625-136.175781c16.566406 0 30 13.429688 30 30s-13.433594 30-30 30-30-13.429688-30-30 13.433594-30 30-30zm0 0"/></svg>