<svg height="512pt" viewBox="0 -25 512 512" width="512pt" xmlns="http://www.w3.org/2000/svg">
    <path d="m302 143h-172c-27.570312 0-50 22.429688-50 50v140c0 27.570312 22.429688 50 50 50h172c27.570312 0 50-22.429688 50-50v-140c0-27.570312-22.429688-50-50-50zm10 190c0 5.515625-4.484375 10-10 10h-15.636719c-10.574219-28.605469-38.085937-49-70.363281-49s-59.792969 20.394531-70.363281 49h-15.636719c-5.515625 0-10-4.484375-10-10v-140c0-5.515625 4.484375-10 10-10h172c5.515625 0 10 4.484375 10 10zm-96-39c-19.054688 0-34.5-15.445312-34.5-34.5s15.445312-34.5 34.5-34.5 34.5 15.445312 34.5 34.5-15.445312 34.5-34.5 34.5zm256-13v-129c0-22.054688-17.945312-40-40-40h-82c-25.195312 0-47.875-15.921875-56.433594-39.621094l-6.921875-19.171875c-2.855469-7.898437-10.414062-13.207031-18.8125-13.207031h-106.769531c-8.566406 0-16.171875 5.445312-18.933594 13.554688l-6.050781 17.777343c-8.09375 23.78125-30.089844 39.933594-55.082031 40.644531-.328125.015626-.660156.023438-.996094.023438-22.054688 0-40 17.945312-40 40v230c0 22.054688 17.945312 40 40 40h312v-190c0-11.046875 8.953125-20 20-20s20 8.953125 20 20v190c22.054688 0 40-17.945312 40-40 0-11.046875 8.953125-20 20-20s20 8.953125 20 20c0 44.113281-35.886719 80-80 80h-352c-44.113281 0-80-35.886719-80-80v-230c0-43.628906 35.105469-79.210938 78.554688-79.988281.238281-.007813.480468-.011719.722656-.011719 8.566406 0 16.171875-5.449219 18.933594-13.554688l6.050781-17.78125c8.28125-24.320312 31.105469-40.664062 56.800781-40.664062h106.769531c25.199219 0 47.878907 15.921875 56.433594 39.621094l6.921875 19.171875c2.855469 7.898437 10.414062 13.207031 18.8125 13.207031h82c44.113281 0 80 35.886719 80 80v129c0 11.046875-8.953125 20-20 20s-20-8.953125-20-20zm-60-139c11.046875 0 20 8.953125 20 20s-8.953125 20-20 20-20-8.953125-20-20 8.953125-20 20-20zm0 0"/>
</svg>