<svg height="512pt" viewBox="0 -18 512 512" width="512pt" xmlns="http://www.w3.org/2000/svg"><path d="m432 0h-352c-44.113281 0-80 35.886719-80 80v280c0 44.113281 35.886719 80 80 80h189.480469.035156.023437 21.460938c11.046875 0 20-8.953125 20-20s-8.953125-20-20-20h-11.664062l-45.984376-59.65625 145.144532-184.617188 93.503906 111.546876v23.726562c0 11.046875 8.953125 20 20 20s20-8.953125 20-20v-211c0-44.113281-35.886719-80-80-80zm-38.671875 111.152344c-3.871094-4.617188-9.628906-7.226563-15.640625-7.148438-6.027344.09375-11.6875 2.898438-15.410156 7.636719l-154.117188 196.023437-52.320312-67.875c-3.785156-4.910156-9.636719-7.789062-15.839844-7.789062-.003906 0-.007812 0-.011719 0-6.203125.003906-12.058593 2.886719-15.839843 7.804688l-44.015626 57.21875c-6.734374 8.757812-5.097656 21.3125 3.65625 28.046874 8.757813 6.738282 21.3125 5.097657 28.046876-3.65625l28.179687-36.632812 88.816406 115.21875h-148.832031c-22.054688 0-40-17.945312-40-40v-280c0-22.054688 17.945312-40 40-40h352c22.054688 0 40 17.945312 40 40v125.007812zm-253.328125-39.152344c-33.085938 0-60 26.914062-60 60s26.914062 60 60 60 60-26.914062 60-60-26.914062-60-60-60zm0 80c-11.027344 0-20-8.972656-20-20s8.972656-20 20-20 20 8.972656 20 20-8.972656 20-20 20zm283.390625 150.296875c-2.363281-2.375-5.285156-4.113281-8.496094-5.066406l-79.226562-23.410157c-6.996094-2.066406-14.558594-.164062-19.742188 4.96875-5.183593 5.132813-7.160156 12.675782-5.160156 19.691407l22.863281 80.222656c.929688 3.265625 2.675782 6.238281 5.070313 8.640625l70.875 71.082031c11.332031 11.332031 26.398437 17.574219 42.425781 17.574219s31.09375-6.242188 42.425781-17.574219 17.574219-26.398437 17.574219-42.425781-6.242188-31.09375-17.550781-42.402344zm-64.191406 20.1875 39.460937 11.660156 34.816406 34.9375-27.847656 28.738281-34.949218-35.054687zm106.941406 107.65625c-7.796875 7.796875-20.484375 7.800781-28.261719.023437l-4-4.015624 27.839844-28.730469 4.421875 4.441406c3.78125 3.777344 5.859375 8.796875 5.859375 14.140625s-2.078125 10.363281-5.859375 14.140625zm0 0"/></svg>