<svg height="512pt" viewBox="0 -50 512.00025 512" width="512pt" xmlns="http://www.w3.org/2000/svg"><path d="m512 80v102c0 11.046875-8.953125 20-20 20s-20-8.953125-20-20v-102c0-22.054688-17.945312-40-40-40h-312c-22.054688 0-40 17.945312-40 40v26c0 11.046875-8.953125 20-20 20h-20v60h20c11.046875 0 20 8.953125 20 20v26c0 22.054688 17.945312 40 40 40h165c11.046875 0 20 8.953125 20 20s-8.953125 20-20 20h-165c-44.113281 0-80-35.886719-80-80v-6h-5.714844c-18.90625 0-34.285156-15.378906-34.285156-34.285156v-71.429688c0-18.90625 15.378906-34.285156 34.285156-34.285156h5.714844v-6c0-44.113281 35.886719-80 80-80h312c44.113281 0 80 35.886719 80 80zm-5.859375 167.859375c-7.808594-7.8125-20.472656-7.8125-28.28125 0l-50.859375 50.855469-50.859375-50.855469c-7.808594-7.8125-20.472656-7.8125-28.28125 0-7.8125 7.808594-7.8125 20.472656 0 28.28125l50.855469 50.859375-50.855469 50.859375c-7.8125 7.808594-7.8125 20.472656 0 28.28125 3.902344 3.90625 9.023437 5.859375 14.140625 5.859375s10.238281-1.953125 14.140625-5.859375l50.859375-50.855469 50.859375 50.855469c3.902344 3.90625 9.023437 5.859375 14.140625 5.859375s10.238281-1.953125 14.140625-5.859375c7.8125-7.808594 7.8125-20.472656 0-28.28125l-50.855469-50.859375 50.855469-50.859375c7.8125-7.808594 7.8125-20.472656 0-28.28125zm0 0"/></svg>