<svg height="512pt" viewBox="0 -18 512 512" width="512pt" xmlns="http://www.w3.org/2000/svg"><path d="m432 0h-352c-44.113281 0-80 35.886719-80 80v280c0 44.113281 35.886719 80 80 80h167c11.046875 0 20-8.953125 20-20s-8.953125-20-20-20h-167c-10.230469 0-19.570312-3.863281-26.648438-10.203125l87.84375-107.632813 52.316407 54.621094c.007812.011719.015625.019532.023437.027344l.019532.023438c.335937.347656.6875.660156 1.042968.980468.140625.125.265625.265625.414063.390625 0 0 .003906.003907.003906.003907 1.558594 1.332031 3.273437 2.390624 5.082031 3.167968.296875.125.597656.222656.898438.335938.304687.113281.609375.238281.917968.339844.402344.128906.816407.222656 1.226563.328124.210937.050782.421875.121094.640625.167969.402344.085938.8125.140625 1.21875.203125.226562.03125.453125.082032.683594.109375.355468.042969.710937.050781 1.066406.074219.285156.019531.574219.050781.859375.054688.28125.007812.558594-.011719.839844-.019532.363281-.007812.730469-.007812 1.089843-.035156.203126-.011719.398438-.050781.597657-.070312.441406-.046876.882812-.09375 1.320312-.167969.132813-.023438.265625-.0625.398438-.089844.496093-.097656.992187-.199219 1.480469-.332031.109374-.03125.214843-.074219.320312-.105469.507812-.148437 1.015625-.308594 1.515625-.496094.164063-.066406.324219-.148437.492187-.21875.429688-.175781.859376-.351562 1.277344-.5625.566406-.28125 1.117188-.59375 1.65625-.929687.015625-.011719.03125-.019532.046875-.027344 1.125-.707031 2.191407-1.535156 3.179688-2.484375.003906-.003906.007812-.007813.011719-.007813.347656-.335937.660156-.6875.980468-1.042968.128906-.140625.265625-.265625.390625-.414063l.007813-.007812c.015625-.019531.03125-.035157.046875-.054688l154.753906-181.152343 79.789063 93.230468c3.800781 4.441406 9.351562 6.996094 15.195312 6.996094h19c11.046875 0 20-8.953125 20-20v-155c0-44.113281-35.886719-80-80-80zm40 203.074219-78.804688-92.078125c-3.800781-4.441406-9.351562-6.996094-15.195312-6.996094-.003906 0-.007812 0-.007812 0-5.847657.003906-11.402344 2.5625-15.199219 7.011719l-155.640625 182.1875-52.707032-55.035157c-3.964843-4.136718-9.488281-6.375-15.238281-6.148437-5.726562.226563-11.078125 2.898437-14.699219 7.339844l-84.507812 103.535156v-262.890625c0-22.054688 17.945312-40 40-40h352c22.054688 0 40 17.945312 40 40zm-332-131.074219c-33.085938 0-60 26.914062-60 60s26.914062 60 60 60 60-26.914062 60-60-26.914062-60-60-60zm0 80c-11.027344 0-20-8.972656-20-20s8.972656-20 20-20 20 8.972656 20 20-8.972656 20-20 20zm304.5 126c-19.105469 0-35.492188 6.308594-47.5 18.035156-12.007812-11.726562-28.394531-18.035156-47.5-18.035156-18.445312 0-35.429688 6.90625-47.816406 19.445312-12.695313 12.851563-19.683594 30.949219-19.683594 50.960938 0 42.292969 36.351562 69.398438 65.5625 91.175781 13.5625 10.113281 26.375 19.664063 33.859375 28.960938 3.796875 4.714843 9.523437 7.457031 15.578125 7.457031s11.78125-2.742188 15.578125-7.457031c7.484375-9.296875 20.296875-18.847657 33.859375-28.960938 29.210938-21.777343 65.5625-48.882812 65.5625-91.175781 0-20.011719-6.988281-38.109375-19.683594-50.960938-12.386718-12.539062-29.371094-19.445312-47.816406-19.445312zm-21.96875 129.511719c-8.6875 6.476562-17.542969 13.082031-25.53125 20.070312-7.988281-6.988281-16.84375-13.59375-25.53125-20.070312-24.320312-18.132813-49.46875-36.882813-49.46875-59.105469 0-18.46875 10.792969-30.40625 27.5-30.40625 14.152344 0 19.722656 5.980469 22.679688 10.476562 3.835937 5.832032 4.769531 12.238282 4.886718 13.175782.617188 10.464844 9.199219 18.4375 19.695313 18.570312h.253906c10.425781 0 19.109375-8.273437 19.925781-18.699218.003906-.054688.800782-6.335938 4.335938-12.1875 2.945312-4.867188 8.554687-11.335938 23.222656-11.335938 16.707031 0 27.5 11.9375 27.5 30.40625 0 22.222656-25.148438 40.972656-49.46875 59.105469zm0 0"/></svg>