<svg height="512pt" viewBox="0 0 512 512" width="512pt" xmlns="http://www.w3.org/2000/svg"><path d="m295.199219 399.367188-89.378907 99.382812c-.265624.296875-.539062.582031-.820312.859375-8.3125 8.203125-18.902344 12.390625-29.597656 12.390625-8.59375 0-17.25-2.699219-24.859375-8.183594-17.078125-12.316406-22.507813-34.113281-13.203125-53 .082031-.164062.164062-.324218.246094-.484375l66.71875-126.660156c5.144531-9.769531 17.238281-13.523437 27.015624-8.375 9.769532 5.148437 13.519532 17.242187 8.375 27.015625l-66.574218 126.390625c-.40625.847656-.632813 1.617187.820312 2.667969 1.332032.960937 1.996094.660156 2.617188.097656l88.902344-98.851562c7.386718-8.210938 20.03125-8.882813 28.246093-1.496094 8.210938 7.390625 8.878907 20.035156 1.492188 28.246094zm-103.203125-80.371094c11.046875 0 20-8.953125 20-20s-8.953125-20-20-20h-53.621094c-12.519531 0-19.703125-9.710938-20.332031-19.308594-.292969-4.445312.707031-10.898438 7.125-16.398438 8.390625-7.1875 9.363281-19.8125 2.175781-28.199218-7.183594-8.390625-19.808594-9.363282-28.199219-2.175782-14.59375 12.5-22.253906 30.503907-21.015625 49.386719 2.113282 32.320313 28.015625 56.695313 60.246094 56.695313zm314.136718 187.136718c-3.902343 3.90625-9.019531 5.859376-14.140624 5.859376-5.117188 0-10.238282-1.953126-14.140626-5.859376l-471.992187-471.992187c-7.8125-7.808594-7.8125-20.472656 0-28.28125 7.808594-7.8125 20.472656-7.8125 28.28125 0l138.304687 138.300781 142.707032-133.800781c.355468-.332031.71875-.652344 1.097656-.957031 7.492188-6.0625 16.925781-9.402344 26.5625-9.402344 15.390625 0 29.117188 7.988281 36.71875 21.371094 7.558594 13.3125 7.433594 29.097656-.328125 42.273437l-63.878906 112.351563h71.183593c19.203126 0 36.078126 10.765625 44.039063 28.09375 7.988281 17.398437 5.144531 37.300781-7.429687 51.9375-.085938.097656-.171876.195312-.257813.292968l-65.238281 73.015626 148.515625 148.515624c7.808593 7.808594 7.808593 20.472657-.003907 28.28125zm-305.390624-333.671874 128.546874 128.546874 63.582032-71.15625c3.082031-3.679687 2.15625-7.253906 1.324218-9.066406-.820312-1.789062-2.910156-4.789062-7.6875-4.789062h-105.558593c-7.121094 0-13.707031-3.785156-17.285157-9.941406-3.582031-6.15625-3.621093-13.75-.101562-19.941407l80.957031-142.390625c.066407-.117187.136719-.238281.207031-.355468.199219-.335938.664063-1.113282.023438-2.238282-.640625-1.128906-1.546875-1.128906-1.9375-1.128906s-.773438.101562-1.109375.296875zm0 0"/></svg>