<svg height="512pt" viewBox="0 0 512 512" width="512pt" xmlns="http://www.w3.org/2000/svg"><path d="m345 236.078125h-32.371094c-6-17.109375-19.542968-30.699219-36.628906-36.757813v-32.320312c0-11.046875-8.953125-20-20-20s-20 8.953125-20 20v32.320312c-17.085938 6.058594-30.628906 19.648438-36.628906 36.757813h-32.371094c-11.046875 0-20 8.957031-20 20 0 11.046875 8.953125 20 20 20h32.507812c6.070313 16.925781 19.542969 30.347656 36.492188 36.359375v33.5625c0 11.046875 8.953125 20 20 20s20-8.953125 20-20v-33.5625c16.953125-6.011719 30.421875-19.433594 36.492188-36.359375h32.507812c11.046875 0 20-8.953125 20-20s-8.953125-20-20-20zm-89-.199219c10.398438 0 18.960938 7.976563 19.90625 18.132813-.070312.679687-.109375 1.371093-.109375 2.066406 0 .628906.039063 1.25.09375 1.863281-1.035156 10.0625-9.5625 17.9375-19.890625 17.9375-11.027344 0-20-8.972656-20-20s8.972656-20 20-20zm-115-215.878906c0 11.046875-8.953125 20-20 20h-61c-11.027344 0-20 8.972656-20 20v59c0 11.046875-8.953125 20-20 20s-20-8.953125-20-20v-59c0-33.085938 26.914062-60 60-60h61c11.046875 0 20 8.953125 20 20zm371 40v59c0 11.046875-8.953125 20-20 20s-20-8.953125-20-20v-59c0-11.027344-8.972656-20-20-20h-61c-11.046875 0-20-8.953125-20-20s8.953125-20 20-20h61c33.085938 0 60 26.914062 60 60zm-371 432c0 11.046875-8.953125 20-20 20h-61c-33.085938 0-60-26.914062-60-60v-59c0-11.046875 8.953125-20 20-20s20 8.953125 20 20v59c0 11.027344 8.972656 20 20 20h61c11.046875 0 20 8.953125 20 20zm371-99v59c0 33.085938-26.914062 60-60 60h-61c-11.046875 0-20-8.953125-20-20s8.953125-20 20-20h61c11.027344 0 20-8.972656 20-20v-59c0-11.046875 8.953125-20 20-20s20 8.953125 20 20zm0 0"/></svg>