<svg height="512pt" viewBox="0 -25 512 512" width="512pt" xmlns="http://www.w3.org/2000/svg"><path d="m472 282v-130c0-22.054688-17.945312-40-40-40h-30.359375c-25.695313 0-48.523437-16.34375-56.800781-40.664062l-6.054688-17.78125c-2.757812-8.109376-10.367187-13.554688-18.929687-13.554688h-127.769531c-8.402344 0-15.960938 5.308594-18.8125 13.207031l-6.925782 19.171875c-8.554687 23.699219-31.234375 39.621094-56.433594 39.621094h-29.914062c-22.054688 0-40 17.945312-40 40v230c0 22.054688 17.945312 40 40 40h352c22.054688 0 40-17.945312 40-40 0-11.046875 8.953125-20 20-20s20 8.953125 20 20c0 44.113281-35.886719 80-80 80h-352c-44.113281 0-80-35.886719-80-80v-230c0-44.113281 35.886719-80 80-80h29.914062c8.402344 0 15.960938-5.308594 18.8125-13.207031l6.925782-19.171875c8.554687-23.699219 31.234375-39.621094 56.433594-39.621094h127.769531c25.695312 0 48.519531 16.34375 56.800781 40.667969l6.050781 17.777343c2.757813 8.105469 10.367188 13.554688 18.933594 13.554688h30.359375c44.113281 0 80 35.886719 80 80v130c0 11.046875-8.953125 20-20 20s-20-8.953125-20-20zm-381-109c-11.046875 0-20 8.953125-20 20v157c0 11.046875 8.953125 20 20 20s20-8.953125 20-20v-157c0-11.046875-8.953125-20-20-20zm349 72v52c0 39.699219-32.300781 72-72 72s-72-32.300781-72-72v-52c0-39.699219 32.300781-72 72-72s72 32.300781 72 72zm-40 0c0-17.644531-14.355469-32-32-32s-32 14.355469-32 32v52c0 17.644531 14.355469 32 32 32s32-14.355469 32-32zm-183.363281 84h-29.785157c-4.914062 0-9.890624-3.09375-9.890624-9 0-11.046875-8.953126-20-20-20-11.046876 0-20 8.953125-20 20 0 27.476562 21.914062 49 49.890624 49h29.785157c31.605469 0 56.363281-24.269531 56.363281-55.25v-9.5c0-31.042969-25.285156-56.296875-56.363281-56.296875h-18.328125c-8.964844 0-16.253906-7.421875-16.253906-16.542969v-2.703125c0-8.953125 6.984374-15.707031 16.253906-15.707031h17.328125c5.09375 0 10.363281 3.410156 10.363281 9.117188 0 11.042968 8.953125 20 20 20s20-8.957032 20-20c0-27.085938-22.59375-49.117188-50.363281-49.117188h-17.328125c-15.011719 0-29.09375 5.6875-39.648438 16.015625-10.707031 10.476563-16.605468 24.574219-16.605468 39.691406v2.703125c0 31.179688 25.234374 56.542969 56.253906 56.542969h18.328125c9.023437 0 16.363281 7.3125 16.363281 16.296875v9.5c0 8.691406-7.035156 15.25-16.363281 15.25zm0 0"/></svg>