<svg height="512pt" viewBox="0 0 512 512" width="512pt" xmlns="http://www.w3.org/2000/svg"><path d="m455 311c-11.046875 0-20 8.953125-20 20s8.953125 20 20 20h37c11.046875 0 20-8.953125 20-20v-251c0-24.808594-11.351562-47.015625-29.132812-61.699219-1.769532-1.972656-3.917969-3.582031-6.335938-4.726562-12.738281-8.566407-28.058594-13.574219-44.53125-13.574219h-352c-44.113281 0-80 35.886719-80 80v352c0 44.113281 35.886719 80 80 80h352c44.113281 0 80-35.886719 80-80 0-11.046875-8.953125-20-20-20s-20 8.953125-20 20c0 22.054688-17.945312 40-40 40h-301.714844c18.917969-12.511719 36.890625-29.515625 54.097656-51.144531 34.753907-43.683594 62.925782-101.546875 90.171876-157.507813 26.21875-53.851562 53.332031-109.539062 85.179687-149.617187 31.523437-39.671875 63.699219-59.492188 100.683594-61.847657 7.15625 7.230469 11.582031 17.167969 11.582031 28.117188v79h-17c-11.046875 0-20 8.953125-20 20s8.953125 20 20 20h17v112zm-126.585938-222.152344c-34.570312 43.511719-62.660156 101.203125-89.824218 156.992188-26.300782 54.015625-53.492188 109.871094-85.511719 150.113281-32.238281 40.523437-65.195313 60.425781-103.261719 62.25-6.105468-7.023437-9.816406-16.1875-9.816406-26.203125v-81h17c11.046875 0 20-8.953125 20-20s-8.953125-20-20-20h-17v-112h17c11.046875 0 20-8.953125 20-20s-8.953125-20-20-20h-17v-79c0-22.054688 17.945312-40 40-40h299.128906c-17.679687 12.246094-34.535156 28.488281-50.714844 48.847656zm69.585938 90.152344c0 11.039062-8.960938 20-20 20-11.050781 0-20-8.960938-20-20s8.949219-20 20-20c11.039062 0 20 8.960938 20 20zm-166 0c0 11.039062-8.949219 20-20 20-11.039062 0-20-8.960938-20-20s8.960938-20 20-20c11.050781 0 20 8.960938 20 20zm-79 0c0 11.039062-8.960938 20-20 20-11.050781 0-20-8.960938-20-20s8.949219-20 20-20c11.039062 0 20 8.960938 20 20zm245 152c0 11.039062-8.960938 20-20 20-11.050781 0-20-8.960938-20-20s8.949219-20 20-20c11.039062 0 20 8.960938 20 20zm-99-20c11.050781 0 20 8.960938 20 20s-8.949219 20-20 20c-11.039062 0-20-8.960938-20-20s8.960938-20 20-20zm-146 20c0 11.039062-8.960938 20-20 20-11.050781 0-20-8.960938-20-20s8.949219-20 20-20c11.039062 0 20 8.960938 20 20zm0 0"/></svg>