<svg height="512pt" viewBox="0 0 512 512" width="512pt" xmlns="http://www.w3.org/2000/svg"><path d="m492 272c11.046875 0 20-8.953125 20-20v-77c0-11.046875-8.953125-20-20-20h-60v-95c0-33.085938-26.914062-60-60-60h-232c-33.085938 0-60 26.914062-60 60v95h-60c-11.046875 0-20 8.953125-20 20v177c0 44.113281 35.886719 80 80 80h156v60c0 11.046875 8.953125 20 20 20s20-8.953125 20-20v-60h156c44.113281 0 80-35.886719 80-80 0-11.046875-8.953125-20-20-20s-20 8.953125-20 20c0 22.054688-17.945312 40-40 40h-352c-22.054688 0-40-17.945312-40-40v-157h40v97c0 33.085938 26.914062 60 60 60h232c33.085938 0 60-26.914062 60-60v-97h40v57c0 11.046875 8.953125 20 20 20zm-100 20c0 11.027344-8.972656 20-20 20h-232c-11.027344 0-20-8.972656-20-20v-232c0-11.027344 8.972656-20 20-20h232c11.027344 0 20 8.972656 20 20zm-197-127v20c0 11.046875-8.953125 20-20 20s-20-8.953125-20-20v-20c0-11.046875 8.953125-20 20-20s20 8.953125 20 20zm80 0v20c0 11.046875-8.953125 20-20 20s-20-8.953125-20-20v-20c0-11.046875 8.953125-20 20-20s20 8.953125 20 20zm80 0v20c0 11.046875-8.953125 20-20 20s-20-8.953125-20-20v-20c0-11.046875 8.953125-20 20-20s20 8.953125 20 20zm-199-69c0-11.046875 8.953125-20 20-20s20 8.953125 20 20-8.953125 20-20 20-20-8.953125-20-20zm80 0c0-11.046875 8.953125-20 20-20s20 8.953125 20 20-8.953125 20-20 20-20-8.953125-20-20zm80 0c0-11.046875 8.953125-20 20-20s20 8.953125 20 20-8.953125 20-20 20-20-8.953125-20-20zm-160 160c0-11.046875 8.953125-20 20-20s20 8.953125 20 20-8.953125 20-20 20-20-8.953125-20-20zm80 0c0-11.046875 8.953125-20 20-20s20 8.953125 20 20-8.953125 20-20 20-20-8.953125-20-20zm80 0c0-11.046875 8.953125-20 20-20s20 8.953125 20 20-8.953125 20-20 20-20-8.953125-20-20zm0 0"/></svg>