<svg version="1.1" xmlns="http://www.w3.org/2000/svg" x="0px" y="0px" viewBox="0 0 385 385">
    <path fill="#555" d="M12,120.3h360.9c6.6,0,12-5.4,12-12c0-6.6-5.4-12-12-12H12c-6.6,0-12,5.4-12,12S5.4,120.3,12,120.3z"/>
    <path fill="#555" d="M372.9,180.5H12c-6.6,0-12,5.4-12,12s5.4,12,12,12h360.9c6.6,0,12-5.4,12-12S379.6,180.5,372.9,180.5z"/>
    <path fill="#555" d="M367.5,264.7h-350c-9.7,0-17.5,5.4-17.5,12c0,6.6,7.8,12,17.5,12h350c9.7,0,17.5-5.4,17.5-12 C385,270.1,377.1,264.7,367.5,264.7z"/>
</svg>
