<?xml version="1.0" encoding="utf-8"?>
<!-- Generator: Adobe Illustrator 24.0.1, SVG Export Plug-In . SVG Version: 6.00 Build 0)  -->
<svg version="1.1" id="Capa_1" xmlns="http://www.w3.org/2000/svg" x="0px" y="0px"
     viewBox="0 0 512 512" style="enable-background:new 0 0 512 512;" xml:space="preserve">
<style type="text/css">
	.st0{fill:#555555;}
</style>
<g>
	<g>
		<path class="st0" d="M494.8,285.9c-14.4-9.3-32.7-7.9-45.5,3.5c-15.1,13.4-69.5,57.2-133.4,57.6c-9.6,0.1-19-0.9-28.1-2.8
			c-60.1-12.8-107.2-59.9-120-119.9c-1.9-8.8-2.8-18-2.8-27.3c0.2-42.7,22.2-92.6,58.9-133.5c11.6-12.9,13.1-31.3,3.7-45.9
			C218.3,3,201-3.3,184.4,1.7c-52.3,16-97.5,47.5-130.9,91.1C19.6,137.3,1.1,190.3,0,246.3c-0.7,36,6,71,19.7,104
			c13.2,31.9,32.3,60.4,56.9,85c24.6,24.6,53.2,43.7,85.1,56.9c31.6,13.1,65,19.7,99.3,19.7c1.6,0,3.2,0,4.8,0
			c43.6-0.8,85-12.1,123.1-33.5c9.6-5.4,13-17.6,7.6-27.3s-17.6-13-27.3-7.6C337,461.7,302,471.3,265.1,472
			c-60.4,1.1-117.2-22-160.2-64.9C62,364.2,38.9,307.3,40,247.1c1.7-93.5,61.4-174.9,149.4-204.9C167,68.4,125.3,126.8,125,196.9
			c0,12.2,1.2,24.2,3.7,35.8c7.9,36.9,26.3,70.6,53.2,97.5c27,26.9,60.7,45.3,97.6,53.2c11.8,2.5,24.2,3.8,36.7,3.7
			c29.1-0.2,59.2-7.5,89.6-21.6c27.2-12.7,48.8-28.2,63.6-40.5c-6.9,19.5-16.5,37.8-28.6,54.7c-6.4,9-4.4,21.5,4.6,27.9
			c9,6.4,21.5,4.4,27.9-4.6c16.3-22.7,28.7-47.8,37-74.4C515.3,312.2,509.1,295.1,494.8,285.9z"/>
	</g>
</g>
</svg>
