<?xml version="1.0" encoding="utf-8"?>
<!-- Generator: Adobe Illustrator 24.0.1, SVG Export Plug-In . SVG Version: 6.00 Build 0)  -->
<svg version="1.1" id="Layer_1" xmlns="http://www.w3.org/2000/svg" x="0px" y="0px"
     viewBox="0 0 341.3 341.3" style="enable-background:new 0 0 341.3 341.3;" xml:space="preserve">
<style type="text/css">
	.st0{fill:#555555;}
</style>
<path class="st0" d="M213.3,42.7c0-23.6-19.1-42.7-42.7-42.7S128,19.1,128,42.7c0,23.6,19.1,42.7,42.7,42.7S213.3,66.2,213.3,42.7z"
	/>
<path class="st0" d="M213.3,170.7c0-23.6-19.1-42.7-42.7-42.7S128,147.1,128,170.7s19.1,42.7,42.7,42.7S213.3,194.2,213.3,170.7z"/>
<path class="st0" d="M213.3,298.7c0-23.6-19.1-42.7-42.7-42.7S128,275.1,128,298.7c0,23.6,19.1,42.7,42.7,42.7
	S213.3,322.2,213.3,298.7z"/>
</svg>
