<?xml version="1.0" encoding="utf-8"?>
<!-- Generator: Adobe Illustrator 24.0.1, SVG Export Plug-In . SVG Version: 6.00 Build 0)  -->
<svg version="1.1" id="Layer_1" xmlns="http://www.w3.org/2000/svg" x="0px" y="0px"
     viewBox="0 0 512 512" style="enable-background:new 0 0 512 512;" xml:space="preserve">
<style type="text/css">
	.st0{fill:#555555;}
</style>
<path class="st0" d="M331.3,436.7c0-41.5-33.8-75.3-75.3-75.3s-75.3,33.8-75.3,75.3c0,41.5,33.8,75.3,75.3,75.3
	C297.5,512,331.3,478.2,331.3,436.7z M217.8,436.7c0-21.1,17.2-38.2,38.2-38.2s38.2,17.2,38.2,38.2S277.1,475,256,475
	S217.8,457.8,217.8,436.7z"/>
<path class="st0" d="M331.3,256c0-41.5-33.8-75.3-75.3-75.3s-75.3,33.8-75.3,75.3c0,41.5,33.8,75.3,75.3,75.3
	C297.5,331.3,331.3,297.5,331.3,256z M217.8,256c0-21.1,17.2-38.2,38.2-38.2s38.2,17.2,38.2,38.2s-17.2,38.2-38.2,38.2
	S217.8,277.1,217.8,256z"/>
<path class="st0" d="M331.3,75.3C331.3,33.8,297.5,0,256,0c-41.5,0-75.3,33.8-75.3,75.3s33.8,75.3,75.3,75.3
	C297.5,150.5,331.3,116.8,331.3,75.3z M217.8,75.3c0-21.1,17.2-38.2,38.2-38.2s38.2,17.2,38.2,38.2s-17.2,38.2-38.2,38.2
	S217.8,96.3,217.8,75.3z"/>
</svg>
