<?xml version="1.0" encoding="utf-8"?>
<!-- Generator: Adobe Illustrator 24.0.1, SVG Export Plug-In . SVG Version: 6.00 Build 0)  -->
<svg version="1.1" id="Capa_1" xmlns="http://www.w3.org/2000/svg" xmlns:xlink="http://www.w3.org/1999/xlink" x="0px" y="0px"
	 viewBox="0 0 512 512" style="enable-background:new 0 0 512 512;" xml:space="preserve">
<style type="text/css">
	.st0{fill:#555555;}
</style>
<g>
	<g>
		<path class="st0" d="M494.2,213.5l-62.2-61.7c-7.8-7.8-20.5-7.7-28.3,0.1c-7.8,7.8-7.7,20.5,0.1,28.3l57.3,56.8H276V50.8
			l56.8,57.3c3.9,3.9,9.1,5.9,14.2,5.9c5.1,0,10.2-1.9,14.1-5.8c7.8-7.8,7.9-20.4,0.1-28.3l-61.7-62.2C288.2,6.3,273.1,0,257,0
			s-31.2,6.3-42.5,17.8l-61.7,62.2c-7.8,7.8-7.7,20.5,0.1,28.3c7.8,7.8,20.5,7.7,28.3-0.1L236,52.8V237H50.8l57.3-56.8
			c7.8-7.8,7.9-20.4,0.1-28.3c-7.8-7.8-20.4-7.9-28.3-0.1l-62.2,61.7C6.3,224.8,0,239.9,0,256s6.3,31.2,17.8,42.5l62.2,61.7
			c3.9,3.9,9,5.8,14.1,5.8c5.1,0,10.3-2,14.2-5.9c7.8-7.8,7.7-20.5-0.1-28.3L52.8,277H236v182.2l-54.8-55.3
			c-7.8-7.8-20.4-7.9-28.3-0.1c-7.8,7.8-7.9,20.4-0.1,28.3l61.7,62.2c11.4,11.4,26.5,17.8,42.5,17.8s31.2-6.3,42.5-17.8l61.7-62.2
			c7.8-7.8,7.7-20.5-0.1-28.3c-7.8-7.8-20.5-7.7-28.3,0.1L276,461.2V277h183.2l-55.3,54.8c-7.8,7.8-7.9,20.4-0.1,28.3
			c3.9,3.9,9.1,5.9,14.2,5.9c5.1,0,10.2-1.9,14.1-5.8l62.2-61.7c11.4-11.4,17.8-26.5,17.8-42.5S505.7,224.8,494.2,213.5z"/>
	</g>
</g>
</svg>
