<?xml version="1.0" encoding="utf-8"?>
<!-- Generator: Adobe Illustrator 24.0.1, SVG Export Plug-In . SVG Version: 6.00 Build 0)  -->
<svg version="1.1" id="Capa_1" xmlns="http://www.w3.org/2000/svg" xmlns:xlink="http://www.w3.org/1999/xlink" x="0px" y="0px"
	 viewBox="0 0 512 512" style="enable-background:new 0 0 512 512;" xml:space="preserve">
<style type="text/css">
	.st0{fill:#555555;}
</style>
<g>
	<g>
		<g>
			<path class="st0" d="M409.9,322.2c1.9,0.5,3.7,0.8,5.6,0.8c8.7,0,16.7-5.7,19.2-14.4c4.9-16.7,7.3-34.1,7.3-51.6c0-11-9-20-20-20
				s-20,9-20,20c0,13.7-1.9,27.3-5.7,40.4C393.2,308,399.3,319.1,409.9,322.2z"/>
			<path class="st0" d="M506.1,477.9l-472-472C26.3-2,13.7-2,5.9,5.9s-7.8,20.5,0,28.3L151,179.3V257c0,57.9,47.1,105,105,105
				c21.4,0,42-6.4,59.4-18.4l29,29c-25.1,19-55.5,29.3-87.4,29.3c-0.2,0-0.3,0-0.5,0c-0.2,0-0.3,0-0.5,0c-80,0-145-65-145-145
				c0-11-9-20-20-20s-20,9-20,20c0,95.3,72.4,173.9,165,183.9V472h-59c-11,0-20,9-20,20s9,20,20,20h160c11,0,20-9,20-20s-9-20-20-20
				h-61v-31c35.6-3.6,69-17.4,96.9-39.9l105,105c3.9,3.9,9,5.9,14.1,5.9s10.2-2,14.1-5.9C514,498.3,514,485.7,506.1,477.9z M256,322
				c-35.8,0-65-29.2-65-65v-37.7l95.3,95.3C277,319.4,266.7,322,256,322z"/>
			<path class="st0" d="M170.8,82.8c9.8,5.1,21.9,1.2,27-8.6C208.7,53.1,231,40,256,40c35.8,0,65,29.2,65,65v123c0,11,9,20,20,20
				s20-9,20-20V105C361,47.1,313.9,0,256,0c-40,0-76,21.4-93.8,55.8C157.2,65.6,161,77.7,170.8,82.8z"/>
		</g>
	</g>
</g>
</svg>
