<?xml version="1.0" encoding="utf-8"?>
<!-- Generator: Adobe Illustrator 24.0.1, SVG Export Plug-In . SVG Version: 6.00 Build 0)  -->
<svg version="1.1" id="Capa_1" xmlns="http://www.w3.org/2000/svg" x="0px" y="0px"
     viewBox="0 0 512 512" style="enable-background:new 0 0 512 512;" xml:space="preserve">
<style type="text/css">
	.st0{fill:#555555;}
</style>
<g>
	<g>
		<g>
			<path class="st0" d="M506,291.8L470.2,256l35.8-35.8c7.8-7.8,7.8-20.5,0-28.3c-7.8-7.8-20.5-7.8-28.3,0l-35.8,35.8l-35.8-35.8
				c-7.8-7.8-20.5-7.8-28.3,0s-7.8,20.5,0,28.3l35.8,35.8l-35.8,35.8c-7.8,7.8-7.8,20.5,0,28.3c3.9,3.9,9,5.9,14.1,5.9
				s10.2-2,14.1-5.9l35.8-35.8l35.8,35.8c3.9,3.9,9,5.9,14.1,5.9s10.2-2,14.1-5.9C513.8,312.3,513.8,299.6,506,291.8z"/>
			<path class="st0" d="M295.2,4.9c-22.7-9.6-47.8-4.8-65.4,12.4c-0.4,0.4-0.8,0.8-1.2,1.3L115.3,150H80.1c-44.1,0-80,35.9-80,80v52
				c0,44.1,35.9,80,80,80h35.2l113.3,131.5c0.4,0.4,0.8,0.9,1.2,1.3c11.7,11.4,26.5,17.3,41.8,17.3c7.9,0,16-1.6,23.7-4.9
				c22.6-9.5,36.6-30.7,36.6-55.2c0-11-9-20-20-20s-20,9-20,20c0,12.3-9.3,17.2-12.2,18.4c-2.9,1.2-12.7,4.4-21.6-3.7L139.6,328.9
				c-3.8-4.4-9.3-6.9-15.1-6.9H80.1c-22,0-40-17.9-40-40v-52c0-22,17.9-40,40-40h44.4c5.8,0,11.3-2.5,15.1-6.9L258.2,45.4
				c8.8-8,18.6-4.8,21.4-3.6c2.9,1.2,12.4,6.2,12.4,18.6v291.6c0,11,9,20,20,20s20-9,20-20V60.3C332,35.7,317.9,14.4,295.2,4.9z"/>
		</g>
	</g>
</g>
</svg>
