<?xml version="1.0" encoding="utf-8"?>
<!-- Generator: Adobe Illustrator 24.0.1, SVG Export Plug-In . SVG Version: 6.00 Build 0)  -->
<svg version="1.1" id="Layer_1" xmlns="http://www.w3.org/2000/svg" x="0px" y="0px"
     viewBox="0 0 511 511" style="enable-background:new 0 0 511 511;" xml:space="preserve">
<style type="text/css">
	.st0{fill:#555555;}
</style>
<path class="st0" d="M509.2,479.9l-184-313.3c-3.6-6.1-10.1-9.9-17.2-9.9H307c-7.1,0-13.7,3.8-17.3,10l-96.4,167.5l-36.3-57.9
	c-3.7-5.9-10.2-9.4-17.2-9.4c-7,0.1-13.4,3.9-16.9,9.9L3.7,481c-3.6,6.2-3.6,13.8-0.1,20s10.2,10,17.3,10h364.2c11,0,20-8.9,20-20
	c0-11-8.9-20-20-20H160.7l147-255.4l167.1,284.5c5.6,9.5,17.8,12.7,27.3,7.1C511.6,501.7,514.7,489.4,509.2,479.9z M55.7,471.1
	l85.1-145.6l30,47.9l-56.2,97.7H55.7z M37.4,205.1c14.3,13.8,31.2,23.5,50.3,28.8c11.4,3.5,22,4.7,31.3,4.7c7.9,0,14.9-0.8,20.5-1.7
	c0.1,0,0.2,0,0.2,0c12.8-2.1,25.3-6.3,36.4-12.1C187,219,192.6,207.1,190,195c-2.6-12.1-12.7-20.7-25-21.5
	c-15.3-0.9-26.2-6.2-38.9-18.7c-2.2-2.2-4.2-4.5-5.8-7c-11.3-17.4-11.3-39.8,0-57.1c1.6-2.4,3.4-4.7,5.6-6.8
	c14.4-14.3,26-17.7,38.9-18.4c12.4-0.7,22.6-9.3,25.3-21.5C192.6,31.9,187,19.8,176,14C130.3-10.3,74.6-2.5,37.4,33.4
	C13.9,56,1,86.5,1,119.2C1,152,13.9,182.5,37.4,205.1z M65.1,62.2C79.4,48.4,97.9,40.8,116.8,40c-6.5,4.2-12.8,9.3-19.1,15.5
	c-4.2,4.1-7.8,8.6-10.9,13.4c-19.8,30.5-19.8,70,0.1,100.6c3.2,4.9,7,9.5,11.2,13.7c6.2,6.1,12.4,11.2,18.8,15.4
	c-6.2-0.2-11.8-1.1-17.5-2.9c-0.2-0.1-0.4-0.1-0.6-0.2c-12.8-3.6-24.1-10-33.6-19.2c-15.6-15-24.2-35.3-24.2-57.1
	C40.9,97.4,49.5,77.2,65.1,62.2z"/>
</svg>
