<?xml version="1.0" encoding="utf-8"?>
<!-- Generator: Adobe Illustrator 24.0.1, SVG Export Plug-In . SVG Version: 6.00 Build 0)  -->
<svg version="1.1" id="Layer_1" xmlns="http://www.w3.org/2000/svg" xmlns:xlink="http://www.w3.org/1999/xlink" x="0px" y="0px"
	 viewBox="0 0 512 512" style="enable-background:new 0 0 512 512;" xml:space="preserve">
<style type="text/css">
	.st0{fill:#555555;}
</style>
<path class="st0" d="M0,119V60C0,26.9,26.9,0,60,0h61c11,0,20,9,20,20s-9,20-20,20H60c-11,0-20,9-20,20v59c0,11-9,20-20,20
	S0,130,0,119z M452,0h-61c-11,0-20,9-20,20s9,20,20,20h61c11,0,20,9,20,20v59c0,11,9,20,20,20s20-9,20-20V60C512,26.9,485.1,0,452,0
	z M121,472H60c-11,0-20-9-20-20v-59c0-11-9-20-20-20s-20,9-20,20v59c0,33.1,26.9,60,60,60h61c11,0,20-9,20-20S132,472,121,472z
	 M492,373c-11,0-20,9-20,20v59c0,11-9,20-20,20h-61c-11,0-20,9-20,20s9,20,20,20h61c33.1,0,60-26.9,60-60v-59
	C512,382,503,373,492,373z M401,317.9c32.8-88.4-9.7-186.4-96.7-223.1c-27.6-11.7-57.9-16.1-87.6-12.8
	c-15.2,1.7-27.2,12.9-29.9,27.9c-2.7,15,4.7,29.6,18.3,36.4c19.5,9.8,34.8,26.3,43.1,46.6c9.1,22.3,9,46.8-0.4,69.1
	s-26.8,39.5-49.1,48.6c-20.3,8.3-42.8,8.9-63.4,1.8c-14.4-5-30,0-38.9,12.5c-8.8,12.4-8.5,28.7,0.9,40.7
	c18.4,23.5,42.7,42.1,70.3,53.7c21.7,9.1,45,13.8,68.3,13.8c7.1,0,14.1-0.4,21.2-1.3c29.3-3.6,57.5-14.6,81.6-31.8
	c9-6.4,11-18.9,4.6-27.9s-18.9-11-27.9-4.6c-38.8,27.9-88.2,33.5-132.2,15c-15.3-6.4-29.3-15.7-41.3-27c24.1,4.3,49,1.7,71.9-7.6
	c32.2-13.1,57.4-38,70.9-70.1c13.5-32.1,13.7-67.5,0.6-99.7c-9.3-22.9-24.9-42.5-44.8-56.8c16.5,0.6,33,4.2,48.3,10.6
	c67.2,28.3,100,104,74.7,172.3c-3.8,10.4,1.4,21.9,11.8,25.7S397.1,328.3,401,317.9z"/>
</svg>
