<?xml version="1.0" encoding="utf-8"?>
<!-- Generator: Adobe Illustrator 24.0.1, SVG Export Plug-In . SVG Version: 6.00 Build 0)  -->
<svg version="1.1" id="Layer_1" xmlns="http://www.w3.org/2000/svg" xmlns:xlink="http://www.w3.org/1999/xlink" x="0px" y="0px"
	 viewBox="0 0 512 512" style="enable-background:new 0 0 512 512;" xml:space="preserve">
<style type="text/css">
	.st0{fill:#555555;}
</style>
<path class="st0" d="M344,420.7c-10.5,3.4-16.3,14.6-13,25.1c2,6.2,0.9,12.8-2.9,18c-3.8,5.2-9.7,8.2-16.2,8.2H60.1
	c-6.5,0-12.3-3-16.1-8.2c-3.8-5.2-4.9-11.8-2.9-18C61.2,382.5,119.5,340,186,340c40,0,77.7,15.4,106.3,43.2
	c7.9,7.7,20.6,7.6,28.3-0.4c7.7-7.9,7.6-20.6-0.4-28.3c-18.7-18.3-40.6-32.3-64.3-41.5c21.4-19.2,34.9-47.1,34.9-78.1
	c0-57.9-47.1-105-105-105s-105,47.1-105,105c0,31,13.5,58.9,35,78.2c-15.6,6.1-30.5,14.4-44.3,24.6C38.9,362,15.2,395.2,2.9,433.7
	c-5.9,18.5-2.7,38.1,8.7,53.7C23,503,40.7,512,60.1,512h251.9c19.4,0,37-9,48.4-24.6c11.4-15.7,14.6-35.2,8.7-53.7
	C365.7,423.2,354.5,417.3,344,420.7z M185.8,170.1c35.8,0,65,29.2,65,65c0,35.8-29.2,65-65,65c-35.8,0-65-29.2-65-65
	C120.9,199.2,150,170.1,185.8,170.1z M486.3,173.9c-15.3-0.9-26.3-6.2-39-18.8c-2.2-2.2-4.2-4.6-5.8-7c-11.3-17.4-11.3-39.9,0-57.2
	c1.6-2.4,3.4-4.7,5.6-6.8c14.4-14.3,26-17.7,39-18.4c12.5-0.7,22.6-9.3,25.3-21.5C514,32,508.4,19.9,497.4,14
	C451.6-10.3,395.7-2.5,358.4,33.5c-23.5,22.6-36.4,53.2-36.4,86c0,32.8,13,63.4,36.5,86c14.3,13.8,31.3,23.5,50.4,28.9
	c11.4,3.5,22,4.7,31.4,4.7c7.9,0,14.9-0.8,20.5-1.7c0.1,0,0.2,0,0.2,0c12.8-2.1,25.4-6.3,36.4-12.1c10.9-5.8,16.5-17.7,13.9-29.8
	C508.7,183.3,498.6,174.6,486.3,173.9z M420.5,196.1c-0.2-0.1-0.4-0.1-0.6-0.2c-12.8-3.6-24.1-10-33.7-19.2
	c-15.6-15.1-24.2-35.4-24.2-57.2c0-21.8,8.6-42.1,24.2-57.2C400.5,48.5,419,40.9,438,40.1c-6.5,4.2-12.9,9.4-19.1,15.6
	c-4.2,4.1-7.8,8.7-11,13.5c-19.8,30.6-19.8,70.1,0,100.8c3.2,4.9,7,9.5,11.3,13.8c6.2,6.1,12.4,11.2,18.9,15.4
	C431.9,198.9,426.2,197.9,420.5,196.1z"/>
</svg>
