<?xml version="1.0" encoding="utf-8"?>
<!-- Generator: Adobe Illustrator 24.0.1, SVG Export Plug-In . SVG Version: 6.00 Build 0)  -->
<svg version="1.1" id="Layer_1" xmlns="http://www.w3.org/2000/svg" x="0px" y="0px"
     viewBox="0 0 512 512" style="enable-background:new 0 0 512 512;" xml:space="preserve">
<style type="text/css">
	.st0{fill:#555555;}
</style>
<path class="st0" d="M376.3,467.1c0,11-8.9,20-20,20H79.8c-44,0-79.8-35.8-79.8-79.8V177.7c0-16.8,5.2-32.9,15-46.6
	c6.4-8.9,18.9-11,27.9-4.5c8.9,6.4,11,18.9,4.5,27.9c-4.9,6.8-7.5,14.9-7.5,23.3v229.6c0,22,17.9,39.9,39.9,39.9h276.5
	C367.3,447.1,376.3,456.1,376.3,467.1z M156.6,244.8c-10.9-1.9-21.2,5.4-23.1,16.3c-1.2,7-1.8,14.2-1.8,21.4
	c0,68.8,56,124.8,124.8,124.8c8.2,0,16.4-0.8,24.3-2.4c10.8-2.1,17.8-12.6,15.7-23.5c-2.1-10.8-12.6-17.8-23.5-15.7
	c-5.4,1.1-11,1.6-16.6,1.6c-46.8,0-84.8-38.1-84.8-84.8c0-4.9,0.4-9.8,1.2-14.6C174.8,257,167.5,246.7,156.6,244.8z M506.2,505.2
	c-3.9,3.9-9,5.8-14.1,5.8s-10.2-1.9-14.1-5.8L6.8,34.1C-1,26.3-1,13.6,6.8,5.8c7.8-7.8,20.4-7.8,28.2,0l87.4,87.4
	c2.7-2.2,4.8-5.2,6-8.6l6.9-19.1c8.5-23.7,31.2-39.5,56.3-39.5h127.5c25.6,0,48.4,16.3,56.7,40.6l6,17.7
	c2.8,8.1,10.3,13.5,18.9,13.5h30.3c44,0,79.8,35.8,79.8,79.8v129.7c0,11-8.9,20-20,20c-11,0-20-8.9-20-20V177.7
	c0-22-17.9-39.9-39.9-39.9h-30.3c-25.6,0-48.4-16.3-56.7-40.6l-6-17.7c-2.8-8.1-10.3-13.5-18.9-13.5H191.7
	c-8.4,0-15.9,5.3-18.8,13.2L166,98.2c-3.2,9-8.5,16.9-15.3,23.3l49.6,49.6c17.4-8.8,36.6-13.4,56.2-13.4
	c68.8,0,124.8,56,124.8,124.8c0,19.7-4.6,38.9-13.4,56.2l94,94c5.9-7,9.2-16,9.2-25.5c0-11,8.9-20,20-20c11,0,20,8.9,20,20
	c0,20.4-7.5,39.3-20.8,53.8l15.9,15.9C513.9,484.7,513.9,497.4,506.2,505.2z M230.8,201.6l106.6,106.6c2.6-8.2,4-16.9,4-25.7
	c0-46.8-38.1-84.8-84.8-84.8C247.7,197.6,239.1,199,230.8,201.6z"/>
</svg>
