<?xml version="1.0" encoding="utf-8"?>
<!-- Generator: Adobe Illustrator 24.0.1, SVG Export Plug-In . SVG Version: 6.00 Build 0)  -->
<svg version="1.1" id="Layer_1" xmlns="http://www.w3.org/2000/svg" xmlns:xlink="http://www.w3.org/1999/xlink" x="0px" y="0px"
	 viewBox="0 0 512 512" style="enable-background:new 0 0 512 512;" xml:space="preserve">
<style type="text/css">
	.st0{fill:#555555;}
</style>
<path class="st0" d="M492,163c11,0,20-9,20-20V99c0-11-9-20-20-20h-62V61c0-11-9-20-20-20s-20,9-20,20v59h-42v-20c0-11-9-20-20-20
	h-57c0-44.1-35.9-80-80-80H80C35.9,0,0,35.9,0,80v221c0,43,34.1,78.1,76.6,79.9L32,484.1c-5.7,13.2,4,27.9,18.4,27.9
	c8,0,15.2-4.7,18.4-12.1L116,390.6V492c0,11,9,20,20,20s20-9,20-20v-99.1l46.3,107.1c3.2,7.3,10.4,12.1,18.4,12.1
	c14.4,0,24.1-14.7,18.4-27.9L194.4,381H410c11,0,20-9,20-20v-59h62c11,0,20-9,20-20v-42c0-11-9-20-20-20s-20,9-20,20v22h-42V119h42
	v24C472,154,481,163,492,163z M390,160v61h-42v-61H390z M308,120v140h-37V120H308z M231,341H80c-22.1,0-40-17.9-40-40V80
	c0-22.1,17.9-40,40-40h111c22.1,0,40,17.9,40,40V341z M271,341v-41h57c11,0,20-9,20-20v-19h42v80H271z M111,90c0,11-9,20-20,20
	s-20-9-20-20s9-20,20-20S111,79,111,90z"/>
</svg>
