<?xml version="1.0" encoding="utf-8"?>
<!-- Generator: Adobe Illustrator 24.0.1, SVG Export Plug-In . SVG Version: 6.00 Build 0)  -->
<svg version="1.1" id="Capa_1" xmlns="http://www.w3.org/2000/svg" xmlns:xlink="http://www.w3.org/1999/xlink" x="0px" y="0px"
	 viewBox="0 0 512 512" style="enable-background:new 0 0 512 512;" xml:space="preserve">
<style type="text/css">
	.st0{fill:#555555;}
</style>
<g>
	<g>
		<g>
			<path class="st0" d="M445.3,95l60.9-60.9c7.8-7.8,7.8-20.5,0-28.3c-7.8-7.8-20.5-7.8-28.3,0L417,66.7L356.1,5.9
				c-7.8-7.8-20.5-7.8-28.3,0s-7.8,20.5,0,28.3L388.7,95l-60.9,60.9c-7.8,7.8-7.8,20.5,0,28.3c3.9,3.9,9,5.9,14.1,5.9
				s10.2-2,14.1-5.9l60.9-60.9l60.9,60.9c3.9,3.9,9,5.9,14.1,5.9s10.2-2,14.1-5.9c7.8-7.8,7.8-20.5,0-28.3L445.3,95z"/>
			<path class="st0" d="M488.7,360.5c-27.9-26.9-51.3-42.5-73.6-48.9c-30.7-8.9-59.2-0.8-84.6,24c0,0-0.1,0.1-0.1,0.1l-27.1,26.9
				c-16.8-9.4-49.5-30.2-85.2-66l-2.6-2.6c-35.5-35.5-56.4-68.4-65.9-85.3l26.8-27c0,0,0.1-0.1,0.1-0.1c24.8-25.4,32.9-53.9,24-84.6
				c-6.4-22.3-22-45.7-48.9-73.6C137.7,9,119.2,0.8,99.4,0.1C79.6-0.7,60.6,6.2,45.9,19.5L45.3,20c-0.3,0.2-0.5,0.5-0.8,0.7
				C15.2,50.1-0.2,91.2,0,139.6c0.4,82.2,45.6,176.2,120.9,251.5c0.1,0.1,0.1,0.1,0.2,0.2c14.1,14.1,30.2,28.1,47.8,41.6
				c8.8,6.7,21.3,5.1,28-3.7c6.7-8.8,5.1-21.3-3.7-28c-16.2-12.4-31-25.3-44-38.3c-0.1-0.1-0.1-0.1-0.2-0.2
				c-67.9-68-108.6-151.4-109-223.3c-0.2-37.3,11-68.4,32.4-90l0.2-0.1c14.5-13,36.5-12.3,50.1,1.8c51.8,53.7,48,79,25.2,102.5
				l-37.1,37.4c-5.8,5.9-7.4,14.7-4.1,22.2c0.9,2.1,23.7,52.4,80.4,109.1l2.6,2.6c56.7,56.7,107,79.5,109.1,80.4
				c7.5,3.4,16.4,1.7,22.2-4.1l37.3-37.1c23.5-22.9,48.8-26.6,102.5,25.1c14.1,13.6,14.9,35.6,1.8,50.1l-0.1,0.2
				c-21.5,21.2-52.2,32.4-89.1,32.4c-0.3,0-0.6,0-0.9,0c-30.1-0.2-64.6-8.2-99.7-23.4c-10.1-4.4-21.9,0.3-26.3,10.4
				c-4.4,10.1,0.3,21.9,10.4,26.3c40,17.2,79.9,26.5,115.3,26.6c0.4,0,0.7,0,1.1,0c47.9,0,88.6-15.4,117.7-44.5
				c0.3-0.3,0.5-0.5,0.7-0.8l0.5-0.6c13.2-14.7,20.1-33.8,19.4-53.6C511.2,392.7,503,374.3,488.7,360.5z"/>
		</g>
	</g>
</g>
</svg>
