<?xml version="1.0" encoding="utf-8"?>
<!-- Generator: Adobe Illustrator 24.0.1, SVG Export Plug-In . SVG Version: 6.00 Build 0)  -->
<svg version="1.1" id="Layer_1" xmlns="http://www.w3.org/2000/svg" xmlns:xlink="http://www.w3.org/1999/xlink" x="0px" y="0px"
	 viewBox="0 0 512 512" style="enable-background:new 0 0 512 512;" xml:space="preserve">
<style type="text/css">
	.st0{fill:#555555;}
</style>
<path class="st0" d="M371.3,410.3H119.8c-11,0-20-8.9-20-20c0-11,8.9-20,20-20h251.5c11,0,20-9,20-20V144.8c0-11,8.9-20,20-20
	c11,0,20,8.9,20,20v205.6C431.2,383.4,404.3,410.3,371.3,410.3z M492,204.7c-11,0-20,8.9-20,20v205.6c0,11-9,20-20,20H200.6
	c-11,0-20,8.9-20,20c0,11,8.9,20,20,20h251.5c33,0,59.9-26.9,59.9-59.9V224.6C512,213.6,503.1,204.7,492,204.7z M291.8,324.4H59.5
	C26.7,324.4,0,297.7,0,264.9V80.5C0,47.7,26.7,21,59.5,21h232.2c32.8,0,59.5,26.7,59.5,59.5v184.3
	C351.3,297.7,324.6,324.4,291.8,324.4z M39.9,80.5v159.6l54.5-59.1c3.7-4,8.9-6.4,14.4-6.4c5.5,0,10.8,2.1,14.6,6.1l24.3,25.1
	L241,96.9c3.8-4.4,9.3-7,15.2-7h0.1c5.9,0,11.4,2.6,15.2,7.1l40,47.5v-64c0-10.8-8.8-19.6-19.6-19.6H59.5
	C48.7,60.9,39.9,69.7,39.9,80.5z M59.5,284.5h232.2c10.8,0,19.6-8.8,19.6-19.6v-58.3L256,140.7l-92.1,107.8c-3.7,4.3-8.9,6.8-14.6,7
	c-5.6,0.2-11.1-2-15-6.1l-24.9-25.7l-55.4,60C55.8,284.2,57.6,284.5,59.5,284.5z M118.8,135.8c11,0,20-8.9,20-20c0-11-8.9-20-20-20
	c-11,0-20,8.9-20,20C98.8,126.9,107.7,135.8,118.8,135.8z"/>
</svg>
