<svg height="511pt" viewBox="0 -18 511.99988 511" width="511pt" xmlns="http://www.w3.org/2000/svg"><path d="m511.996094 80.5v152c0 11.046875-8.953125 20-19.996094 20h-11c-5.472656 0-10.699219-2.238281-14.476562-6.199219l-87.039063-91.265625-154.953125 197.796875c-3.792969 4.839844-9.597656 7.667969-15.742188 7.667969-.007812 0-.007812 0-.011718 0-6.152344-.003906-11.960938-2.839844-15.746094-7.683594l-52.90625-67.679687-28.289062 36.777343c-6.730469 8.753907-19.289063 10.394532-28.046876 3.65625-8.753906-6.734374-10.390624-19.292968-3.65625-28.046874l44.015626-57.21875c3.769531-4.898438 9.59375-7.78125 15.773437-7.804688h.078125c6.152344 0 11.964844 2.832031 15.757812 7.683594l53.046876 67.863281 153.449218-195.882813c3.582032-4.570312 8.972656-7.359374 14.773438-7.640624 5.808594-.28125 11.4375 1.96875 15.445312 6.171874l79.527344 83.386719v-113.582031c0-22.054688-17.945312-40-40-40h-352c-22.054688 0-40 17.945312-40 40v280c0 22.054688 17.945312 40 40 40h131c11.046875 0 20 8.953125 20 20 0 11.042969-8.953125 20-20 20h-131c-44.113281 0-80-35.890625-80-80v-280c0-44.113281 35.886719-80 80-80h352c44.109375 0 79.996094 35.886719 79.996094 80zm-431.996094 52c0-33.085938 26.914062-60 60-60 33.082031 0 60 26.914062 60 60 0 33.082031-26.917969 60-60 60-33.085938 0-60-26.917969-60-60zm40 0c0 11.027344 8.972656 20 20 20s20-8.972656 20-20-8.972656-20-20-20-20 8.972656-20 20zm383.640625 157.738281c-8.980469-6.433593-21.476563-4.363281-27.902344 4.617188l-98.582031 137.699219c-2.691406 3.125-6.066406 3.796874-7.875 3.917968-1.859375.128906-5.472656-.113281-8.570312-3.0625l-63.820313-61.28125c-7.96875-7.652344-20.628906-7.394531-28.277344.574219-7.648437 7.964844-7.394531 20.628906.574219 28.277344l63.882812 61.339843c9.566407 9.109376 22.339844 14.175782 35.476563 14.175782 1.128906 0 2.261719-.035156 3.394531-.113282 14.3125-.953124 27.679688-7.914062 36.664063-19.097656.234375-.289062.457031-.585937.675781-.886718l98.980469-138.257813c6.429687-8.980469 4.359375-21.476563-4.621094-27.902344zm0 0"/></svg>