<svg height="512pt" viewBox="-79 0 512 512" width="512pt" xmlns="http://www.w3.org/2000/svg"><path d="m334 351.121094c11.046875 0 20-8.953125 20-20v-251.121094c0-44.113281-35.886719-80-80-80h-194c-44.113281 0-80 35.886719-80 80v352c0 44.113281 35.886719 80 80 80h194c44.113281 0 80-35.886719 80-80 0-11.046875-8.953125-20-20-20s-20 8.953125-20 20c0 22.054688-17.945312 40-40 40h-194c-22.054688 0-40-17.945312-40-40v-60.855469l69.164062-85.304687 26.015626 28.710937c3.898437 4.304688 9.476562 6.691407 15.28125 6.566407 5.808593-.136719 11.269531-2.785157 14.964843-7.265626l90.359375-109.484374 58.214844 69.242187v57.511719c0 11.046875 8.953125 20 20 20zm-63.046875-190.871094c-3.820313-4.542969-9.476563-7.121094-15.398437-7.128906-5.9375.027344-11.558594 2.691406-15.335938 7.269531l-90.921875 110.167969-26.152344-28.863282c-3.921875-4.328124-9.527343-6.714843-15.371093-6.5625-5.835938.15625-11.308594 2.859376-14.988282 7.394532l-52.785156 65.105468v-227.632812c0-22.054688 17.945312-40 40-40h194c22.054688 0 40 17.945312 40 40v131.449219zm-130.953125-20.128906c0 11.046875-8.953125 20-20 20s-20-8.953125-20-20 8.953125-20 20-20 20 8.953125 20 20zm60 261c11.046875 0 20 8.953125 20 20s-8.953125 20-20 20h-40c-11.046875 0-20-8.953125-20-20s8.953125-20 20-20zm0 0"/></svg>