<svg height="512pt" viewBox="0 0 512 512" width="512pt" xmlns="http://www.w3.org/2000/svg"><path d="m492 289c11.046875 0 20-8.953125 20-20v-189c0-44.113281-35.886719-80-80-80h-101c-42.28125 0-125.09375 53.933594-153.433594 74.710938-20.390625 14.953124-32.566406 39.039062-32.566406 64.429687v24.859375h-85c-33.085938 0-60 26.914062-60 60s26.914062 60 60 60h5v208c0 11.046875 8.953125 20 20 20s20-8.953125 20-20v-208h40v23.308594c0 24.496094 11.003906 47.316406 30.195312 62.613281 39.5 31.488281 116.335938 78.078125 155.804688 78.078125h101c44.113281 0 80-35.886719 80-80 0-11.046875-8.953125-20-20-20s-20 8.953125-20 20c0 22.054688-17.945312 40-40 40h-87c-22.054688 0-40-17.945312-40-40v-288c0-22.054688 17.945312-40 40-40h87c22.054688 0 40 17.945312 40 40v189c0 11.046875 8.953125 20 20 20zm-432-45c-11.027344 0-20-8.972656-20-20s8.972656-20 20-20h85v40zm125 63.308594v-168.167969c0-12.699219 6.0625-24.726563 16.21875-32.171875 20.570312-15.082031 43.746094-29.585938 65.078125-41.214844-.835937 4.628906-1.296875 9.382813-1.296875 14.246094v288c0 4.929688.472656 9.75 1.328125 14.4375-22.4375-12.417969-46.4375-28.039062-66.199219-43.792969-9.613281-7.664062-15.128906-19.085937-15.128906-31.335937zm0 0"/></svg>