<svg height="512pt" viewBox="0 0 512 512" width="512pt" xmlns="http://www.w3.org/2000/svg"><path d="m512 256c0 68.378906-26.628906 132.667969-74.980469 181.019531-48.351562 48.351563-112.640625 74.980469-181.019531 74.980469s-132.667969-26.628906-181.019531-74.980469c-48.351563-48.351562-74.980469-112.640625-74.980469-181.019531 0-11.046875 8.953125-20 20-20s20 8.953125 20 20c0 119.101562 96.898438 216 216 216s216-96.898438 216-216-96.898438-216-216-216c-11.046875 0-20-8.953125-20-20s8.953125-20 20-20c68.378906 0 132.667969 26.628906 181.019531 74.980469 48.351563 48.351562 74.980469 112.640625 74.980469 181.019531zm-371.808594-28.75c6.769532 8.734375 19.332032 10.324219 28.058594 3.558594l7.75-6.003906v103.195312c0 11.046875 8.953125 20 20 20s20-8.953125 20-20v-144c0-7.632812-4.34375-14.601562-11.195312-17.960938-6.855469-3.359374-15.023438-2.523437-21.054688 2.152344l-40 31c-8.730469 6.765625-10.324219 19.328125-3.558594 28.058594zm105.808594 55.75v-54c0-35.839844 29.160156-65 65-65s65 29.160156 65 65v54c0 35.839844-29.160156 65-65 65s-65-29.160156-65-65zm40 0c0 13.785156 11.214844 25 25 25s25-11.214844 25-25v-54c0-13.785156-11.214844-25-25-25s-25 11.214844-25 25zm-103-232c11.046875 0 20-8.953125 20-20s-8.953125-20-20-20-20 8.953125-20 20 8.953125 20 20 20zm-66 34c11.046875 0 20-8.953125 20-20s-8.953125-20-20-20-20 8.953125-20 20 8.953125 20 20 20zm-52 52c11.046875 0 20-8.953125 20-20s-8.953125-20-20-20-20 8.953125-20 20 8.953125 20 20 20zm-34 66c11.046875 0 20-8.953125 20-20s-8.953125-20-20-20-20 8.953125-20 20 8.953125 20 20 20zm0 0"/></svg>