<svg height="512pt" viewBox="0 0 512 512" width="512pt" xmlns="http://www.w3.org/2000/svg"><path d="m233 204v13h17c.152344 0 .304688 0 .453125.003906 1.617187.039063 16.234375.589844 31.039063 8.574219 20.964843 11.304687 32.507812 31.859375 32.507812 57.882813 0 34.851562-27.871094 63.300781-62.492188 64.277343-1.011718.15625-2.035156.261719-3.085937.261719-22.226563 0-43.46875-12.074219-55.441406-31.507812-5.796875-9.402344-2.871094-21.726563 6.535156-27.519532 9.398437-5.792968 21.722656-2.871094 27.519531 6.535156 4.375 7.101563 12.351563 11.976563 20.160156 12.445313.816407-.101563 1.640626-.171875 2.480469-.171875 13.414063 0 24.324219-10.910156 24.324219-24.320312 0-14.289063-6.082031-19.515626-10.65625-22.207032-6.015625-3.53125-12.652344-4.167968-13.839844-4.253906h-36.503906c-11.046875 0-20-8.953125-20-20v-53c0-11.046875 8.953125-20 20-20h81c11.046875 0 20 8.953125 20 20s-8.953125 20-20 20zm204.019531-129.019531c-48.351562-48.351563-112.640625-74.980469-181.019531-74.980469-11.046875 0-20 8.953125-20 20s8.953125 20 20 20c119.101562 0 216 96.898438 216 216s-96.898438 216-216 216-216-96.898438-216-216c0-11.046875-8.953125-20-20-20s-20 8.953125-20 20c0 68.378906 26.628906 132.667969 74.980469 181.019531 48.351562 48.351563 112.640625 74.980469 181.019531 74.980469s132.667969-26.628906 181.019531-74.980469c48.351563-48.351562 74.980469-112.640625 74.980469-181.019531s-26.628906-132.667969-74.980469-181.019531zm-254.019531-23.980469c11.046875 0 20-8.953125 20-20s-8.953125-20-20-20-20 8.953125-20 20 8.953125 20 20 20zm-66 34c11.046875 0 20-8.953125 20-20s-8.953125-20-20-20-20 8.953125-20 20 8.953125 20 20 20zm-52 52c11.046875 0 20-8.953125 20-20s-8.953125-20-20-20-20 8.953125-20 20 8.953125 20 20 20zm-34 66c11.046875 0 20-8.953125 20-20s-8.953125-20-20-20-20 8.953125-20 20 8.953125 20 20 20zm0 0"/></svg>