<svg height="512pt" viewBox="-48 0 512 512.00192" width="512pt" xmlns="http://www.w3.org/2000/svg"><path d="m409.878906 477.855469-84.863281-84.859375v-84.558594c0-5.335938-2.132813-10.453125-5.925781-14.210938l-65.8125-65.171874c23.484375-18.761719 46.496094-26.46875 46.714844-26.542969 5.609374-1.800781 10.140624-5.988281 12.378906-11.4375 4.367187-10.621094 18.867187-41.355469 33.304687-55.792969 23.921875-23.925781 49.914063-35.234375 50.121094-35.324219 6.132813-2.585937 10.574219-8.058593 11.851563-14.589843 1.277343-6.53125-.78125-13.269532-5.488282-17.976563-13.265625-13.265625-27.964844-24.847656-43.6875-34.417969-9.4375-5.742187-21.742187-2.75-27.484375 6.6875-5.742187 9.4375-2.75 21.742188 6.6875 27.484375 5.414063 3.296875 10.6875 6.886719 15.792969 10.746094-10.796875 7.023437-23.625 16.652344-36.078125 29.105469-12.058594 12.054687-22.65625 29.511718-30.214844 43.882812-58.554687-52.3125-112.085937-73.230468-149.925781-81.253906 38.898438-24.179688 84.234375-34.199219 129.59375-27.804688 10.9375 1.53125 21.054688-6.074218 22.597656-17.015624 1.542969-10.9375-6.074218-21.054688-17.015625-22.59375-35.367187-4.980469-72.207031-1.507813-106.527343 10.058593-29.375 9.894531-57.0625 25.828125-81.023438 46.460938l-13.203125-12.355469c-8.066406-7.546875-20.722656-7.128906-28.269531.9375s-7.128906 20.722656.9375 28.269531l12.390625 11.597657c-35.730469 42.398437-55.714844 94.621093-56.6914065 149.175781-1.1132815 62.34375 22.8124995 121.21875 67.3749995 165.78125 3.792969 3.789062 8.894532 5.859375 14.144532 5.859375 1.351562 0 2.710937-.136719 4.0625-.417969 6.597656-1.367187 12.0625-5.964844 14.539062-12.230469.09375-.238281 10.175782-24.722656 33.851563-48.398437 14.460937-14.464844 46.324219-29.96875 57.371093-34.71875 5.316407-2.28125 9.386719-6.753907 11.15625-12.261719.082032-.25 6.871094-20.359375 22.996094-42.09375l59.480469 58.90625v75.644531l-85.429687 85.429688c-12.601563 12.601562-3.675782 34.144531 14.144531 34.144531 5.304687 0 10.390625-2.105469 14.140625-5.855469l57.144531-57.148437v43.003906c0 11.046875 8.957031 20 20 20 11.046875 0 20.003906-8.953125 20.003906-20v-42.433594l56.574219 56.578125c3.75 3.75 8.835938 5.855469 14.140625 5.855469 17.820313 0 26.742187-21.542969 14.144531-34.144531zm-304.15625-159.191407c-12.03125 12.03125-21.230468 24.222657-27.953125 34.570313-47.152343-62.621094-50.109375-146.4375-9.417969-213.863281 8.121094 37.742187 29.046876 90.878906 80.878907 148.980468-14.476563 7.835938-31.738281 18.542969-43.507813 30.3125zm71.40625-59.160156c-40.238281-45.84375-58.183594-86.894531-66.175781-114.679687-4.695313-16.335938-6.523437-29.867188-7.152344-39.601563 9.730469.628906 23.265625 2.460938 39.597657 7.15625 27.691406 7.960938 68.5625 25.824219 114.222656 65.777344-13.625 7.601562-30.070313 18.679688-45.414063 34.023438-16.070312 16.070312-27.457031 33.347656-35.078125 47.324218zm0 0"/></svg>